<svg width="24" height="24" viewBox="0 0 24 24" fill="none" xmlns="http://www.w3.org/2000/svg">
<path d="M21.6004 8.8474V17.3998C21.6004 18.1955 21.2843 18.9585 20.7217 19.5211C20.1591 20.0837 19.396 20.3998 18.6004 20.3998H5.40039C4.60474 20.3998 3.84168 20.0837 3.27907 19.5211C2.71646 18.9585 2.40039 18.1955 2.40039 17.3998V8.8474L11.6956 14.317C11.7879 14.3715 11.8932 14.4002 12.0004 14.4002C12.1076 14.4002 12.2128 14.3715 12.3052 14.317L21.6004 8.8474ZM18.6004 4.7998C19.3386 4.79969 20.0509 5.07173 20.601 5.56389C21.1512 6.05605 21.5006 6.73377 21.5824 7.4674L12.0004 13.1038L2.41839 7.4674C2.50018 6.73377 2.84958 6.05605 3.39974 5.56389C3.94991 5.07173 4.66222 4.79969 5.40039 4.7998H18.6004Z" fill="white"/>
</svg>
