<svg width="24" height="24" viewBox="0 0 24 24" fill="none" xmlns="http://www.w3.org/2000/svg">
<path d="M18.3788 4.94141L19.0575 5.62061L11.8623 12.8158L11.1836 12.1371L18.3788 4.94141Z" fill="black"/>
<path d="M19.1998 9.60078H18.2398V5.76078H14.3998V4.80078H19.1998V9.60078ZM16.7998 18.2408H7.19977C6.38377 18.2408 5.75977 17.6168 5.75977 16.8008V7.20078C5.75977 6.38478 6.38377 5.76078 7.19977 5.76078H12.4798V6.72078H7.19977C6.91177 6.72078 6.71977 6.91278 6.71977 7.20078V16.8008C6.71977 17.0888 6.91177 17.2808 7.19977 17.2808H16.7998C17.0878 17.2808 17.2798 17.0888 17.2798 16.8008V11.5208H18.2398V16.8008C18.2398 17.6168 17.6158 18.2408 16.7998 18.2408Z" fill="black"/>
</svg>
