<?xml version="1.0" encoding="UTF-8" standalone="no"?>
<!DOCTYPE svg PUBLIC "-//W3C//DTD SVG 1.1//EN" "http://www.w3.org/Graphics/SVG/1.1/DTD/svg11.dtd">
<svg xmlns="http://www.w3.org/2000/svg" version="1.1" viewBox="0.00 0.00 486.00 513.00">
<g stroke-width="2.00" fill="none" stroke-linecap="butt">
<path stroke="#9e9e9c" vector-effect="non-scaling-stroke" d="
  M 304.13 212.28
  Q 303.85 216.95 302.23 221.76
  Q 301.46 224.06 303.14 225.11
  C 306.48 227.19 308.01 229.79 307.46 233.91
  A 0.90 0.90 0.0 0 0 307.65 234.59
  L 310.11 237.60
  A 0.91 0.91 0.0 0 1 309.28 239.07
  L 306.71 238.73
  Q 306.19 238.66 305.91 239.10
  Q 304.84 240.84 306.79 241.43
  Q 309.32 242.18 311.42 240.17
  Q 311.79 239.82 312.31 239.84
  L 318.99 240.09
  A 0.69 0.49 -21.1 0 1 319.19 240.14
  Q 320.61 240.81 321.76 241.85
  Q 322.13 242.19 322.62 242.32
  C 325.93 243.20 324.17 246.88 326.32 248.95
  A 1.05 1.04 -52.9 0 0 327.94 248.72
  L 330.44 244.50
  Q 330.76 243.96 331.38 243.88
  Q 336.75 243.26 340.75 246.52
  Q 341.14 246.85 341.64 246.96
  C 345.41 247.83 345.74 252.16 345.68 255.79
  Q 345.68 256.31 345.45 256.79
  L 344.31 259.28
  Q 344.00 259.96 344.71 260.16
  Q 347.53 260.98 347.27 264.06
  A 0.85 0.84 -87.5 0 0 348.11 264.98
  L 350.97 265.01
  Q 351.71 265.01 351.67 264.28
  Q 351.48 260.34 353.29 256.70
  Q 353.48 256.31 353.89 256.14
  Q 355.58 255.44 356.38 253.82
  A 1.32 1.32 0.0 0 1 358.76 253.85
  Q 359.91 256.31 362.58 257.09
  Q 364.46 257.65 363.78 255.81
  C 362.14 251.36 364.05 247.84 364.68 243.39
  A 0.91 0.91 0.0 0 1 366.28 242.92
  C 370.66 248.05 372.08 254.71 374.95 260.89
  A 1.36 1.36 0.0 0 1 375.03 261.82
  C 374.08 265.42 375.83 268.15 376.24 270.72
  C 377.03 275.74 377.58 281.02 378.88 285.63
  C 379.83 288.99 379.93 294.78 382.29 296.92
  Q 382.65 297.24 382.74 297.72
  L 384.49 307.36
  A 1.07 1.06 -21.6 0 0 386.12 308.06
  Q 387.37 307.24 388.83 308.46
  Q 389.11 308.70 389.21 309.06
  Q 390.44 313.95 392.91 318.37
  A 0.63 0.63 0.0 0 1 392.74 319.19
  L 390.52 320.88
  A 0.70 0.70 0.0 0 0 390.99 322.14
  C 399.23 321.57 398.69 329.27 399.34 334.74
  A 1.81 1.80 -67.4 0 0 399.70 335.62
  C 402.78 339.53 404.04 344.15 407.32 347.94
  Q 407.65 348.32 408.12 348.47
  C 409.47 348.91 410.34 349.29 410.93 350.72
  Q 412.77 355.12 414.11 359.81
  Q 414.26 360.34 413.74 360.50
  C 410.24 361.56 406.83 359.91 403.15 358.35
  Q 402.72 358.17 402.27 358.25
  L 397.74 359.03
  A 0.65 0.65 0.0 0 0 397.55 360.25
  Q 402.06 362.57 407.37 363.05
  Q 407.88 363.09 408.31 363.38
  Q 410.52 364.87 413.13 364.54
  Q 413.67 364.48 414.16 364.70
  L 416.69 365.84
  A 0.37 0.37 0.0 0 0 417.20 365.43
  C 416.87 363.76 413.80 363.68 412.49 362.65
  Q 411.69 362.03 412.70 362.03
  L 416.56 362.04"
/>
<path stroke="#9e9e9c" vector-effect="non-scaling-stroke" d="
  M 317.73 513.00
  L 314.70 503.69
  Q 314.53 503.17 314.00 503.30
  Q 312.53 503.66 311.38 504.53
  C 308.94 506.38 306.86 507.45 304.72 509.12
  Q 304.30 509.45 303.77 509.52
  Q 301.42 509.82 299.75 511.44
  Q 299.44 511.74 299.00 511.76
  Q 297.01 511.85 295.65 513.00"
/>
<path stroke="#9e9e9c" vector-effect="non-scaling-stroke" d="
  M 290.57 513.00
  Q 302.90 507.94 313.29 501.11
  Q 314.11 500.57 313.89 499.61
  L 311.24 488.19
  Q 311.11 487.60 310.50 487.65
  L 308.91 487.77
  Q 308.39 487.81 308.10 487.38
  Q 307.25 486.12 307.22 484.60
  Q 307.21 484.11 306.98 483.67
  C 304.64 479.07 309.17 476.98 308.16 472.71
  A 0.83 0.83 0.0 0 0 306.76 472.32
  L 304.96 474.12
  Q 304.23 474.85 304.37 473.82
  C 304.92 470.06 307.08 465.96 306.93 462.33
  C 306.76 458.12 307.12 453.98 306.59 449.91
  C 305.44 441.19 304.36 433.23 305.01 424.40
  Q 305.05 423.93 304.74 423.57
  L 302.33 420.77
  Q 301.91 420.28 302.26 419.75
  Q 306.55 413.24 305.62 404.82
  Q 304.89 398.21 304.15 391.61
  C 303.11 382.39 303.14 372.11 302.02 362.28
  A 1.57 1.56 -78.9 0 0 301.22 361.08
  Q 295.14 357.80 289.30 353.94
  C 285.18 351.23 282.15 348.23 286.29 343.62
  Q 286.59 343.29 286.19 343.09
  L 282.18 341.09
  A 1.72 1.68 1.3 0 1 281.38 340.27
  Q 279.10 335.36 283.12 331.84
  A 0.71 0.68 21.1 0 1 283.52 331.67
  L 289.28 331.02
  A 0.31 0.31 0.0 0 0 289.36 330.42
  L 283.22 327.90
  A 1.10 1.08 85.6 0 1 282.68 327.43
  C 280.91 324.30 281.62 317.95 285.95 317.17
  Q 288.49 316.72 286.33 315.32
  C 282.65 312.92 284.04 306.78 288.29 306.09
  Q 289.75 305.85 292.14 306.78
  Q 298.00 309.05 304.31 310.06
  A 0.47 0.46 63.5 0 0 304.60 309.19
  L 304.00 308.87
  Q 303.52 308.61 303.35 308.10
  C 302.82 306.58 301.64 305.51 301.19 304.14
  Q 300.19 301.16 300.05 297.99
  Q 300.02 297.43 299.71 296.96
  L 295.16 290.03
  A 0.63 0.62 -57.8 0 0 294.02 290.29
  Q 293.87 291.40 292.57 290.90
  Q 289.84 289.85 288.54 287.24
  Q 288.34 286.84 287.90 286.69
  Q 282.48 284.93 276.93 286.80
  Q 276.47 286.96 276.12 286.61
  C 273.68 284.13 273.45 281.30 271.55 279.06
  C 263.73 269.81 266.26 265.33 272.92 257.16
  C 276.57 252.68 275.26 248.60 276.39 243.48
  A 0.24 0.24 0.0 0 0 276.00 243.24
  C 257.99 257.81 232.02 256.78 214.76 241.81
  A 0.36 0.36 0.0 0 0 214.20 242.22
  C 217.26 249.25 218.86 256.28 220.58 263.72
  C 221.85 269.27 221.54 275.68 223.13 281.66
  Q 223.49 283.03 222.13 282.64
  C 216.23 280.96 214.89 277.39 210.74 273.73
  A 0.23 0.23 0.0 0 1 210.95 273.33
  L 213.03 273.81
  A 0.58 0.58 0.0 0 0 213.35 272.70
  Q 212.55 272.42 212.70 271.54
  A 0.66 0.66 0.0 0 0 211.89 270.78
  Q 210.88 271.04 210.04 270.53
  Q 209.45 270.18 209.93 269.69
  L 210.44 269.18
  Q 210.72 268.91 210.80 268.52
  Q 211.30 266.11 213.64 265.20
  Q 214.13 265.00 214.05 264.48
  L 213.72 262.27
  Q 213.64 261.74 214.15 261.58
  Q 214.95 261.33 214.97 260.44
  Q 214.98 259.94 214.53 259.71
  Q 210.91 257.87 207.27 259.32
  Q 206.68 259.55 206.57 258.93
  Q 206.02 255.94 208.22 252.68"
/>
<path stroke="#9e9e9c" vector-effect="non-scaling-stroke" d="
  M 208.22 252.68
  Q 208.43 251.93 209.57 251.76
  A 5.49 3.81 -24.7 0 0 210.31 251.60
  Q 210.91 251.42 211.01 250.98
  Q 211.11 250.54 211.55 250.59
  Q 212.87 250.72 213.38 250.05
  A 1.52 1.51 0.9 0 0 211.29 247.90
  C 209.27 249.34 204.68 250.86 202.53 248.70
  Q 201.97 248.14 202.71 247.86
  L 205.10 246.96
  Q 205.56 246.79 205.73 246.32
  Q 205.88 245.87 205.52 245.48
  A 4.43 2.95 38.1 0 1 204.23 241.55
  C 205.23 238.94 205.51 234.12 208.14 232.62
  Q 208.74 232.28 209.03 232.90
  L 211.60 238.18
  Q 211.75 238.50 212.02 238.27
  Q 212.12 238.19 212.18 238.07
  Q 212.32 237.81 212.18 237.39
  Q 208.21 225.79 203.71 214.34
  A 0.98 0.92 43.1 0 1 203.67 213.74
  Q 204.42 210.87 202.01 209.49
  A 0.80 0.80 0.0 0 1 201.64 208.56
  L 203.75 201.61
  Q 203.91 201.08 203.39 200.92
  L 202.72 200.71
  A 0.51 0.50 15.2 0 0 202.07 201.08
  L 200.78 206.58
  Q 200.69 207.00 200.26 207.00
  Q 200.13 207.00 199.99 207.01
  A 0.39 0.39 0.0 0 1 199.58 206.51
  L 201.52 199.85"
/>
<path stroke="#9e9e9c" vector-effect="non-scaling-stroke" d="
  M 244.35 73.78
  C 243.40 73.42 242.48 72.50 241.35 72.24
  A 0.38 0.38 0.0 0 0 241.10 72.95
  L 244.52 74.68
  A 0.34 0.34 0.0 0 0 244.93 74.15
  Q 244.73 73.92 244.35 73.78"
/>
<path stroke="#9e9e9c" vector-effect="non-scaling-stroke" d="
  M 191.4474 74.3483
  A 0.71 0.71 0.0 0 0 190.5642 73.8708
  L 188.4559 74.4993
  A 0.71 0.71 0.0 0 0 187.9783 75.3825
  L 188.0526 75.6317
  A 0.71 0.71 0.0 0 0 188.9358 76.1092
  L 191.0441 75.4807
  A 0.71 0.71 0.0 0 0 191.5217 74.5975
  L 191.4474 74.3483"
/>
<path stroke="#9e9e9c" vector-effect="non-scaling-stroke" d="
  M 277.0052 263.8304
  A 2.53 0.64 -37.2 0 0 274.6031 264.8502
  A 2.53 0.64 -37.2 0 0 272.9748 266.8896
  A 2.53 0.64 -37.2 0 0 275.3769 265.8698
  A 2.53 0.64 -37.2 0 0 277.0052 263.8304"
/>
<path stroke="#9e9e9c" vector-effect="non-scaling-stroke" d="
  M 345.00 279.94
  C 342.12 274.95 336.75 269.37 332.67 265.87
  A 0.71 0.71 0.0 0 0 331.57 266.72
  C 333.48 270.58 334.28 274.91 338.80 277.19
  Q 341.70 278.66 344.16 280.65
  A 0.56 0.56 0.0 0 0 345.00 279.94"
/>
<path stroke="#9e9e9c" vector-effect="non-scaling-stroke" d="
  M 221.4239 280.7181
  A 4.54 2.37 50.4 0 0 220.3561 275.7093
  A 4.54 2.37 50.4 0 0 215.6361 273.7219
  A 4.54 2.37 50.4 0 0 216.7039 278.7307
  A 4.54 2.37 50.4 0 0 221.4239 280.7181"
/>
<path stroke="#9e9e9c" vector-effect="non-scaling-stroke" d="
  M 360.00 341.78
  L 360.00 344.25
  Q 360.00 344.50 360.25 344.50
  Q 360.38 344.50 360.52 344.50
  A 0.13 0.12 2.4 0 0 360.65 344.39
  L 360.94 342.47
  Q 361.04 341.80 361.72 341.77
  Q 362.80 341.72 363.35 340.88
  Q 363.68 340.38 364.22 340.62
  Q 368.54 342.48 369.60 346.94
  Q 369.73 347.45 370.16 347.73
  C 373.01 349.61 374.29 351.80 371.68 354.81
  Q 371.34 355.20 371.49 355.69
  L 371.77 356.59
  Q 371.94 357.12 372.43 356.88
  L 375.24 355.51
  Q 375.80 355.24 376.20 355.72
  C 378.14 358.05 380.45 358.34 382.23 360.61
  A 1.69 1.65 -10.5 0 0 383.08 361.18
  Q 385.38 361.85 387.20 363.44
  Q 387.60 363.79 388.09 363.62
  Q 390.49 362.80 392.63 364.26
  A 0.50 0.49 22.5 0 0 393.40 363.95
  L 393.51 363.39
  Q 393.60 362.93 393.16 362.78
  C 388.59 361.26 379.62 358.15 376.99 353.99
  C 374.95 350.77 370.52 347.36 369.78 343.90
  Q 369.68 343.45 369.33 343.14
  C 364.89 339.25 360.60 334.31 354.27 331.21
  A 0.58 0.58 0.0 0 0 353.43 331.79
  L 353.84 336.25
  Q 353.86 336.43 353.68 336.45
  L 353.25 336.51
  Q 352.78 336.58 352.79 337.05
  C 352.95 344.20 349.86 350.72 346.84 357.15
  C 342.93 365.48 337.59 371.59 330.62 377.16
  C 327.42 379.72 324.55 379.68 320.85 378.57
  A 0.47 0.47 0.0 0 0 320.25 379.02
  L 320.25 379.46
  Q 320.25 379.82 320.59 379.94
  Q 325.81 381.77 329.94 378.92
  C 337.26 373.86 344.26 365.85 347.92 357.32
  C 350.95 350.25 353.46 345.53 354.16 338.01
  A 0.71 0.70 37.0 0 1 355.52 337.82
  L 356.83 341.16
  Q 356.99 341.57 357.43 341.54
  L 359.55 341.37
  Q 360.00 341.33 360.00 341.78"
/>
<path stroke="#fcfcfc" vector-effect="non-scaling-stroke" d="
  M 208.22 252.68
  Q 202.46 254.68 204.40 258.62
  Q 204.70 259.21 204.13 259.54
  L 202.96 260.21
  A 0.79 0.79 0.0 0 1 201.77 259.47
  L 201.99 256.38
  A 0.82 0.82 0.0 0 0 201.17 255.50
  L 199.96 255.50
  Q 199.38 255.50 199.12 254.99
  Q 196.66 250.10 195.62 244.74
  A 0.20 0.20 0.0 0 0 195.23 244.71
  C 194.26 247.29 196.14 252.20 196.84 254.26
  C 197.43 256.00 199.02 256.49 199.23 258.77
  A 1.02 0.99 27.6 0 0 199.37 259.20
  L 200.69 261.31"
/>
<path stroke="#9e9e9c" vector-effect="non-scaling-stroke" d="
  M 200.69 261.31
  L 201.47 263.75"
/>
<path stroke="#fcfcfc" vector-effect="non-scaling-stroke" d="
  M 201.47 263.75
  Q 201.55 269.74 203.31 275.11
  Q 204.44 278.57 204.72 280.43
  C 205.27 284.08 204.65 286.76 205.10 289.59
  A 0.29 0.28 -43.7 0 0 205.66 289.60
  Q 206.18 287.21 208.23 286.06
  A 1.29 1.22 88.4 0 0 208.75 285.48
  Q 209.48 283.81 210.97 282.75
  A 0.54 0.53 -35.1 0 1 211.73 282.88
  L 215.43 288.24
  Q 215.77 288.74 215.40 289.22
  Q 215.00 289.72 214.36 290.14
  A 1.57 1.34 -72.0 0 0 215.48 292.84
  Q 216.35 292.34 216.25 291.51
  Q 216.19 290.95 216.75 290.99
  Q 217.67 291.06 217.90 292.22
  A 1.72 1.68 -34.1 0 1 217.65 293.45
  Q 212.32 301.68 210.17 311.75
  Q 209.60 314.45 207.02 314.34"
/>
<path stroke="#9e9e9c" vector-effect="non-scaling-stroke" d="
  M 207.02 314.34
  C 207.49 309.17 207.86 305.57 204.75 301.84
  Q 204.29 301.29 204.23 302.00
  Q 204.20 302.44 204.52 302.84
  Q 204.86 303.27 204.54 303.71
  L 202.06 307.16
  Q 201.70 307.66 201.09 307.80
  Q 199.14 308.25 198.64 310.39
  A 0.75 0.75 0.0 0 1 198.38 310.80
  Q 196.92 312.00 194.55 315.79
  Q 189.69 323.56 180.82 328.97
  C 174.94 332.56 170.44 342.19 166.13 349.76
  Q 165.93 350.11 165.54 350.01
  Q 165.09 349.90 164.80 350.32
  C 160.03 357.27 165.03 372.19 168.19 379.30
  A 0.64 0.64 0.0 0 1 167.79 380.17
  Q 165.74 380.82 164.87 379.25
  A 1.47 1.43 82.1 0 0 163.94 378.53
  Q 158.56 377.15 153.83 379.61
  A 0.94 0.94 0.0 0 0 153.42 380.84
  L 156.85 388.04
  A 1.89 1.89 0.0 0 1 155.54 390.70
  L 151.80 391.51
  Q 151.25 391.63 150.74 391.40
  Q 144.96 388.79 138.85 390.59
  Q 138.24 390.77 138.11 391.39
  Q 137.49 394.58 135.20 396.90
  Q 134.83 397.27 134.32 397.24
  Q 133.81 397.20 133.46 397.46
  C 132.46 398.17 133.04 399.49 133.95 399.99
  Q 134.41 400.23 134.41 400.75
  C 134.40 402.64 135.86 402.99 136.59 404.09
  Q 137.40 405.30 138.15 406.57
  Q 138.41 407.00 138.89 407.16
  Q 140.82 407.79 142.44 406.69
  A 0.69 0.69 0.0 0 1 143.41 406.91
  Q 143.80 407.58 143.17 407.92
  Q 141.64 408.75 139.17 409.18
  Q 138.60 409.28 138.78 409.83
  C 139.93 413.38 142.98 419.09 141.77 423.64
  Q 141.63 424.18 141.11 423.98
  Q 139.47 423.35 139.47 421.30
  C 139.46 417.77 138.82 414.34 137.30 411.14
  C 136.15 408.72 135.52 406.09 134.38 403.96
  Q 131.05 397.76 127.35 391.77
  C 125.92 389.45 125.05 386.73 123.77 384.30
  A 0.64 0.64 0.0 0 0 122.57 384.69
  L 123.19 388.88
  Q 123.26 389.39 122.87 389.72
  C 117.53 394.21 120.10 398.26 119.11 403.95
  C 118.60 406.85 116.43 408.41 116.51 412.00
  Q 116.53 412.73 117.25 412.82
  L 119.27 413.08
  A 0.32 0.32 0.0 0 1 119.40 413.66
  C 116.85 415.29 113.23 415.27 111.19 415.69
  C 108.08 416.32 104.86 416.26 101.63 416.65
  Q 96.08 417.32 90.67 415.54
  Q 90.19 415.39 89.97 414.92
  C 88.83 412.46 88.70 409.14 88.23 407.14
  Q 86.84 401.27 87.41 395.12
  Q 87.47 394.50 86.87 394.66
  Q 83.98 395.40 81.76 393.81
  Q 81.26 393.45 81.08 394.03
  Q 80.26 396.57 77.64 396.54
  Q 77.15 396.53 76.96 396.97
  Q 71.50 409.17 69.55 416.52
  Q 67.82 423.01 67.00 425.24
  Q 66.77 425.86 67.33 427.17
  Q 67.55 427.67 67.46 428.21
  Q 66.82 432.13 70.49 433.83
  A 0.43 0.43 0.0 0 1 70.60 434.54
  Q 70.33 434.78 69.88 434.89"
/>
<path stroke="#9e9e9c" vector-effect="non-scaling-stroke" d="
  M 57.83 421.87
  Q 56.17 414.73 58.04 408.01
  A 1.21 1.18 -52.2 0 0 57.94 407.12
  L 53.65 399.22
  Q 53.43 398.81 52.99 398.97
  L 52.25 399.24"
/>
<path stroke="#9e9e9c" vector-effect="non-scaling-stroke" d="
  M 204.99 225.41
  Q 203.62 227.27 203.86 229.59
  A 0.44 0.44 0.0 0 0 204.70 229.71
  C 205.51 227.63 206.60 225.24 205.73 222.98
  A 0.23 0.23 0.0 0 0 205.28 223.06
  L 205.24 224.67
  A 1.44 1.39 64.8 0 1 204.99 225.41"
/>
<path stroke="#9e9e9c" vector-effect="non-scaling-stroke" d="
  M 82.99 368.30
  L 70.35 367.34
  Q 69.82 367.30 69.36 367.56
  Q 67.51 368.59 66.19 367.03
  A 0.77 0.77 0.0 0 1 66.55 365.80
  C 72.06 364.11 80.69 365.62 78.59 356.20
  Q 78.27 354.78 79.03 354.05
  Q 79.36 353.73 79.27 353.28
  C 78.70 350.49 79.28 349.43 80.65 346.92
  C 81.82 344.79 80.92 342.71 82.82 340.66
  Q 83.11 340.35 83.03 339.93
  Q 82.70 338.13 83.69 336.67
  A 1.38 1.36 58.5 0 0 83.91 335.72
  C 83.48 332.40 83.09 330.07 84.36 326.68
  Q 85.44 323.76 85.73 320.65
  C 85.90 318.75 86.63 317.30 87.10 315.48
  C 87.79 312.84 89.36 311.10 90.37 308.61
  C 91.32 306.24 93.11 304.21 92.59 300.81
  A 2.01 1.97 -39.6 0 1 92.69 299.85
  C 93.53 297.54 93.88 295.43 94.87 293.03
  C 95.81 290.74 96.42 285.41 98.66 284.01
  Q 99.07 283.74 99.30 283.31
  Q 101.67 278.65 103.51 273.82
  Q 103.98 272.59 103.68 271.92
  A 0.37 0.37 0.0 0 0 103.00 271.91
  Q 96.73 285.15 87.46 296.44
  Q 86.88 297.15 85.55 297.20
  Q 85.04 297.22 84.77 297.65
  Q 82.62 301.02 80.84 304.61
  Q 80.66 304.98 80.71 305.36
  Q 80.77 305.92 80.95 306.20
  A 0.79 0.79 0.0 0 0 82.26 306.25
  L 83.72 304.19
  A 0.63 0.63 0.0 0 1 84.77 304.88
  Q 83.13 307.65 82.88 310.81
  C 82.71 312.84 81.19 315.02 80.79 317.20
  Q 79.02 326.67 75.98 335.77
  C 75.33 337.72 75.55 339.57 74.56 341.26
  Q 73.46 343.15 71.98 344.76
  Q 71.65 345.13 71.51 345.61
  C 70.61 348.72 68.45 353.35 64.76 353.47
  Q 64.24 353.49 63.94 353.90
  C 62.60 355.71 60.50 356.27 59.01 357.31
  Q 57.17 358.59 55.17 359.71
  Q 54.74 359.95 54.51 360.39
  Q 54.05 361.31 52.96 360.97
  A 0.59 0.58 -63.7 0 0 52.29 361.20
  L 50.99 363.06
  A 0.95 0.94 42.7 0 0 51.04 364.19
  C 54.47 368.40 59.91 369.32 65.03 369.92
  C 71.56 370.68 77.51 372.40 84.01 372.90"
/>
<path stroke="#9e9e9c" vector-effect="non-scaling-stroke" d="
  M 84.01 372.90
  Q 84.84 373.02 85.19 373.38
  A 0.60 0.60 0.0 0 1 84.66 374.39
  L 72.26 372.42
  Q 71.94 372.37 71.75 372.63
  C 69.68 375.46 66.14 374.47 63.05 374.51
  A 1.35 1.32 -27.2 0 1 62.24 374.26
  Q 60.70 373.17 59.10 374.19
  Q 58.67 374.46 58.51 374.94
  C 56.18 381.69 65.76 381.98 69.50 380.48
  A 0.42 0.42 0.0 0 1 70.04 381.03
  Q 68.65 384.30 65.45 385.75
  Q 65.03 385.94 64.72 386.27
  Q 63.87 387.19 62.74 387.67
  Q 62.35 387.84 62.13 388.21
  L 59.77 392.20
  Q 59.50 392.65 59.52 393.17
  Q 59.60 394.88 57.87 395.16
  A 0.58 0.58 0.0 0 0 57.38 395.78
  Q 57.55 398.11 56.84 400.31
  Q 56.66 400.84 56.91 401.35
  L 58.30 404.23
  Q 58.49 404.62 58.66 404.22
  C 63.87 391.80 79.30 379.31 92.77 377.85
  Q 93.06 377.82 93.00 378.28
  Q 92.95 378.65 92.59 378.75
  L 87.89 380.03
  A 0.33 0.33 0.0 0 0 87.97 380.68
  C 91.53 380.79 93.72 378.40 96.18 377.44
  Q 99.42 376.17 102.88 375.31
  A 0.33 0.33 0.0 0 1 103.26 375.78
  Q 102.41 377.44 100.70 377.38
  Q 100.30 377.37 99.95 377.55
  L 95.87 379.65
  Q 95.34 379.92 94.93 380.34
  L 94.37 380.90
  Q 93.92 381.35 94.54 381.47
  C 98.79 382.29 101.48 379.71 104.45 376.54
  Q 104.79 376.18 105.27 376.04
  C 111.27 374.41 113.63 374.83 119.40 376.80
  A 0.63 0.63 0.0 0 0 120.12 376.58
  L 122.88 372.81
  Q 123.21 372.36 123.72 372.16
  C 129.93 369.77 134.46 374.32 139.46 368.85
  A 1.74 1.64 74.0 0 0 139.88 368.04
  Q 141.50 360.87 148.08 358.51
  C 151.32 357.35 153.50 355.56 156.55 354.35
  C 160.03 352.98 161.84 350.93 164.50 348.62
  Q 164.81 348.35 164.77 347.94
  L 164.44 344.71
  Q 164.37 344.05 164.97 343.76
  Q 168.56 341.99 168.90 337.98
  A 1.33 1.32 -20.7 0 1 169.27 337.17
  C 173.41 332.97 169.28 330.06 170.52 326.56
  Q 171.83 322.89 171.75 319.65
  A 1.37 1.36 -26.8 0 0 169.30 318.85
  Q 166.97 321.86 163.78 324.02
  A 1.06 1.05 -6.8 0 1 162.20 322.78
  Q 163.78 318.59 166.98 315.43
  A 1.59 1.59 0.0 0 1 168.01 314.98
  L 171.75 314.76
  A 0.73 0.73 0.0 0 0 172.43 314.17
  Q 173.01 310.99 171.22 307.54
  Q 168.92 303.11 168.24 295.75
  Q 167.75 290.41 165.04 282.11
  C 161.70 271.84 159.07 261.86 155.04 251.96
  A 0.50 0.49 -52.0 0 0 154.09 252.08
  Q 153.58 255.44 154.70 258.67
  C 155.92 262.21 155.33 265.41 155.08 268.96
  C 154.95 270.93 155.94 272.55 153.46 273.93
  Q 152.89 274.25 152.59 273.67
  Q 152.52 273.54 152.48 273.40
  Q 152.39 273.05 152.07 272.87
  Q 149.68 271.60 148.99 273.29
  Q 148.80 273.75 148.96 274.22
  C 149.43 275.58 150.28 277.50 149.43 278.74
  Q 148.75 279.74 147.32 279.42
  Q 146.87 279.32 146.75 278.88
  L 141.71 261.01
  A 2.07 2.07 0.0 0 0 137.65 261.44
  L 136.67 276.60
  Q 136.63 277.17 136.26 277.60
  Q 135.63 278.34 136.29 279.18
  A 1.17 1.16 -57.3 0 1 136.51 280.19
  Q 135.47 284.19 136.11 288.31
  A 0.82 0.79 56.7 0 1 136.01 288.83
  C 134.34 291.69 134.61 293.87 133.39 296.80
  A 0.91 0.91 0.0 0 1 131.65 296.62
  Q 130.59 291.10 132.04 285.25
  C 134.15 276.71 131.44 271.21 128.85 263.97
  A 0.39 0.39 0.0 0 0 128.09 264.05
  L 127.93 265.21
  Q 127.88 265.63 127.57 265.92
  Q 126.98 266.48 126.77 267.25
  A 2.01 2.01 0.0 0 1 123.15 267.84
  L 121.20 264.88
  Q 120.87 264.38 120.29 264.53
  Q 119.11 264.84 119.06 266.01
  C 118.95 268.65 118.36 270.81 117.82 273.40
  Q 117.72 273.89 117.45 274.31
  Q 115.93 276.68 118.30 278.81
  Q 118.68 279.15 118.43 279.60
  Q 117.02 282.08 114.67 283.47
  Q 114.26 283.70 114.27 284.17
  L 114.41 295.57
  A 0.44 0.44 0.0 0 1 113.58 295.77
  C 113.07 294.69 112.61 293.08 111.72 292.35
  C 109.37 290.42 106.29 293.31 107.23 296.03
  Q 108.00 298.25 109.86 299.75
  Q 110.29 300.09 110.40 300.63
  Q 111.56 306.30 107.85 310.51
  A 0.88 0.87 -40.3 0 0 107.76 311.55
  Q 108.41 312.62 107.64 313.37
  Q 107.21 313.78 107.47 314.32
  Q 109.42 318.52 105.24 320.15
  Q 104.89 320.28 104.65 319.99
  L 103.28 318.35
  A 1.29 1.29 0.0 0 0 101.00 319.19
  Q 101.08 325.98 101.96 332.48
  Q 102.28 334.90 101.71 339.75
  Q 101.40 342.37 99.57 342.74
  C 96.93 343.26 92.58 341.83 90.30 340.45
  A 0.90 0.90 0.0 0 0 88.98 341.52
  Q 90.42 345.66 94.15 347.90
  A 1.32 1.32 0.0 0 0 95.32 348.00
  Q 96.47 347.56 97.64 348.01
  Q 98.13 348.21 98.58 347.92
  Q 101.76 345.86 105.03 344.04
  Q 106.03 343.48 106.88 343.84
  Q 107.66 344.17 106.93 344.58
  L 95.36 351.09
  A 0.72 0.71 -16.5 0 0 94.99 351.76
  Q 95.30 356.23 99.81 357.15
  Q 100.34 357.26 100.66 357.69
  C 102.23 359.83 103.00 363.32 101.47 365.67
  C 100.00 367.93 96.66 367.64 94.38 368.17
  C 90.43 369.09 86.87 368.71 82.99 368.30"
/>
<path stroke="#3f3f3b" vector-effect="non-scaling-stroke" d="
  M 84.01 372.90
  Q 83.48 372.13 83.84 371.67
  Q 84.08 371.37 83.71 371.27
  C 79.39 370.11 75.58 371.34 71.46 369.50
  Q 71.07 369.33 71.47 369.16
  Q 75.01 367.69 76.66 368.44
  C 80.82 370.35 83.22 369.07 86.73 369.76
  Q 87.05 369.83 87.25 369.72
  A 0.24 0.24 0.0 0 0 87.14 369.27
  L 84.97 369.24
  Q 84.51 369.24 84.12 368.99
  L 82.99 368.30"
/>
<path stroke="#9e9e9c" vector-effect="non-scaling-stroke" d="
  M 118.32 377.41
  Q 113.40 376.88 108.85 378.89
  Q 108.43 379.07 108.36 379.52
  L 108.01 381.83
  A 0.69 0.68 76.3 0 0 109.09 382.49
  Q 113.22 379.49 118.22 378.58
  Q 118.63 378.51 118.73 378.10
  Q 118.88 377.47 118.32 377.41"
/>
<path stroke="#9e9e9c" vector-effect="non-scaling-stroke" d="
  M 72.69 393.13
  C 71.72 394.94 69.55 397.03 68.98 398.99
  Q 67.21 405.06 61.77 406.96
  Q 61.05 407.22 61.04 407.98
  L 60.97 412.40
  Q 60.97 412.93 60.79 413.42
  Q 59.67 416.60 61.07 419.66
  Q 61.27 420.08 61.17 420.53
  Q 60.62 422.97 62.68 424.81
  A 1.70 1.70 0.0 0 0 65.43 424.06
  Q 69.32 411.88 74.45 399.20
  Q 76.37 394.45 79.40 390.41
  C 80.38 389.10 80.54 387.50 79.12 386.55
  A 0.77 0.76 -47.1 0 0 78.22 386.59
  Q 74.72 389.37 72.69 393.13"
/>
<path stroke="#9e9e9c" vector-effect="non-scaling-stroke" d="
  M 71.07 390.13
  Q 69.62 392.97 68.07 395.78
  C 66.76 398.16 64.36 400.29 63.18 403.29
  Q 62.99 403.78 63.51 403.70
  Q 65.85 403.36 66.49 401.68
  Q 68.84 395.54 72.72 390.37
  A 0.64 0.64 0.0 0 0 72.41 389.38
  Q 71.58 389.11 71.07 390.13"
/>
<path stroke="#9e9e9c" vector-effect="non-scaling-stroke" d="
  M 381.27 272.01
  Q 380.69 272.41 379.96 272.56
  Q 379.49 272.65 379.65 273.10
  C 384.16 285.77 389.88 297.59 394.44 310.80
  C 395.81 314.77 397.38 318.14 399.42 321.44
  A 0.93 0.93 0.0 0 0 401.10 320.66
  Q 400.08 317.52 401.45 316.89"
/>
<path stroke="#9e9e9c" vector-effect="non-scaling-stroke" d="
  M 217.58 513.00
  Q 214.55 510.11 209.21 509.98
  A 2.04 2.04 0.0 0 1 207.22 507.92
  C 207.28 500.37 207.72 492.66 207.74 485.08
  C 207.79 471.32 208.87 455.83 209.14 443.93
  Q 209.88 411.77 210.36 379.56
  Q 210.37 379.03 210.86 378.82
  C 214.17 377.41 219.87 375.10 221.71 372.20
  C 225.09 366.87 225.88 360.66 227.97 354.23
  Q 228.73 351.89 226.25 349.25
  A 0.81 0.79 -57.1 0 1 226.08 348.41
  C 227.95 343.43 229.61 339.66 224.56 335.82
  Q 224.17 335.53 224.29 335.05
  C 225.40 330.72 227.16 328.60 223.13 325.02
  Q 222.76 324.70 222.84 324.21
  C 223.20 321.82 221.64 316.66 218.29 317.95
  Q 217.70 318.18 217.90 317.58
  C 218.89 314.71 212.45 314.23 210.56 314.42
  Q 210.00 314.48 209.86 315.03
  L 208.57 319.94
  Q 208.45 320.42 208.06 320.72
  L 206.64 321.83
  A 0.56 0.56 0.0 0 1 205.74 321.29
  L 207.02 314.34"
/>
<path stroke="#9e9e9c" vector-effect="non-scaling-stroke" d="
  M 201.47 263.75
  Q 205.28 268.99 205.38 274.98
  Q 205.42 277.18 205.82 278.59
  A 1.26 1.25 -51.9 0 0 208.28 278.29
  Q 208.33 276.61 209.26 275.21
  Q 209.62 274.68 209.30 274.13
  L 201.93 261.11
  Q 201.71 260.71 201.35 260.99
  Q 200.96 261.30 200.69 261.31"
/>
<path stroke="#9e9e9c" vector-effect="non-scaling-stroke" d="
  M 217.73 283.66
  L 217.32 284.12
  A 0.17 0.17 0.0 0 0 217.33 284.36
  L 219.07 285.94
  A 3.81 0.41 42.3 0 0 222.17 288.21
  L 222.26 288.10
  A 3.81 0.41 42.3 0 0 219.72 285.23
  L 217.97 283.65
  A 0.17 0.17 0.0 0 0 217.73 283.66"
/>
<path stroke="#9e9e9c" vector-effect="non-scaling-stroke" d="
  M 219.2938 279.1035
  A 2.14 0.75 65.9 0 0 219.1046 276.8438
  A 2.14 0.75 65.9 0 0 217.5462 275.1965
  A 2.14 0.75 65.9 0 0 217.7354 277.4562
  A 2.14 0.75 65.9 0 0 219.2938 279.1035"
/>
<path stroke="#9e9e9c" vector-effect="non-scaling-stroke" d="
  M 132.38 513.00
  C 132.29 508.46 131.64 504.04 133.28 499.74
  Q 135.34 494.32 138.34 489.51
  A 0.46 0.46 0.0 0 0 137.82 488.83
  L 132.81 490.28
  Q 132.40 490.40 132.10 490.71
  L 130.87 491.98
  A 0.66 0.66 0.0 0 1 129.87 491.93
  Q 127.84 489.35 127.58 486.02
  A 0.68 0.67 60.9 0 0 126.36 485.67
  Q 125.73 486.54 125.77 488.01
  Q 126.11 500.52 125.85 513.00"
/>
<path stroke="#9e9e9c" vector-effect="non-scaling-stroke" d="
  M 207.5747 404.2446
  A 4.41 3.83 -2.8 0 0 202.9829 400.6346
  A 4.41 3.83 -2.8 0 0 198.7653 404.6754
  A 4.41 3.83 -2.8 0 0 203.3571 408.2854
  A 4.41 3.83 -2.8 0 0 207.5747 404.2446"
/>
<path stroke="#9e9e9c" vector-effect="non-scaling-stroke" d="
  M 205.9315 464.9536
  A 4.46 3.42 -32.5 0 0 200.3324 464.4656
  A 4.46 3.42 -32.5 0 0 198.4085 469.7464
  A 4.46 3.42 -32.5 0 0 204.0076 470.2344
  A 4.46 3.42 -32.5 0 0 205.9315 464.9536"
/>
<path stroke="#9e9e9c" vector-effect="non-scaling-stroke" d="
  M 205.6613 404.0925
  A 2.48 1.95 -4.8 0 0 203.0268 402.3568
  A 2.48 1.95 -4.8 0 0 200.7187 404.5075
  A 2.48 1.95 -4.8 0 0 203.3532 406.2432
  A 2.48 1.95 -4.8 0 0 205.6613 404.0925"
/>
<path stroke="#9e9e9c" vector-effect="non-scaling-stroke" d="
  M 204.0359 466.0868
  A 2.33 1.53 -29.1 0 0 201.2559 465.8831
  A 2.33 1.53 -29.1 0 0 199.9641 468.3532
  A 2.33 1.53 -29.1 0 0 202.7441 468.5569
  A 2.33 1.53 -29.1 0 0 204.0359 466.0868"
/>
</g>
<path fill="#3f3f3b" d="
  M 247.52 45.78
  A 0.36 0.36 0.0 0 1 247.50 46.50
  L 246.24 46.50
  A 0.23 0.22 32.4 0 1 246.14 46.07
  Q 246.86 45.74 247.52 45.78
  Z"
/>
<path fill="#3f3f3b" d="
  M 304.13 212.28
  Q 303.85 216.95 302.23 221.76
  Q 301.46 224.06 303.14 225.11
  C 306.48 227.19 308.01 229.79 307.46 233.91
  A 0.90 0.90 0.0 0 0 307.65 234.59
  L 310.11 237.60
  A 0.91 0.91 0.0 0 1 309.28 239.07
  L 306.71 238.73
  Q 306.19 238.66 305.91 239.10
  Q 304.84 240.84 306.79 241.43
  Q 309.32 242.18 311.42 240.17
  Q 311.79 239.82 312.31 239.84
  L 318.99 240.09
  A 0.69 0.49 -21.1 0 1 319.19 240.14
  Q 320.61 240.81 321.76 241.85
  Q 322.13 242.19 322.62 242.32
  C 325.93 243.20 324.17 246.88 326.32 248.95
  A 1.05 1.04 -52.9 0 0 327.94 248.72
  L 330.44 244.50
  Q 330.76 243.96 331.38 243.88
  Q 336.75 243.26 340.75 246.52
  Q 341.14 246.85 341.64 246.96
  C 345.41 247.83 345.74 252.16 345.68 255.79
  Q 345.68 256.31 345.45 256.79
  L 344.31 259.28
  Q 344.00 259.96 344.71 260.16
  Q 347.53 260.98 347.27 264.06
  A 0.85 0.84 -87.5 0 0 348.11 264.98
  L 350.97 265.01
  Q 351.71 265.01 351.67 264.28
  Q 351.48 260.34 353.29 256.70
  Q 353.48 256.31 353.89 256.14
  Q 355.58 255.44 356.38 253.82
  A 1.32 1.32 0.0 0 1 358.76 253.85
  Q 359.91 256.31 362.58 257.09
  Q 364.46 257.65 363.78 255.81
  C 362.14 251.36 364.05 247.84 364.68 243.39
  A 0.91 0.91 0.0 0 1 366.28 242.92
  C 370.66 248.05 372.08 254.71 374.95 260.89
  A 1.36 1.36 0.0 0 1 375.03 261.82
  C 374.08 265.42 375.83 268.15 376.24 270.72
  C 377.03 275.74 377.58 281.02 378.88 285.63
  C 379.83 288.99 379.93 294.78 382.29 296.92
  Q 382.65 297.24 382.74 297.72
  L 384.49 307.36
  A 1.07 1.06 -21.6 0 0 386.12 308.06
  Q 387.37 307.24 388.83 308.46
  Q 389.11 308.70 389.21 309.06
  Q 390.44 313.95 392.91 318.37
  A 0.63 0.63 0.0 0 1 392.74 319.19
  L 390.52 320.88
  A 0.70 0.70 0.0 0 0 390.99 322.14
  C 399.23 321.57 398.69 329.27 399.34 334.74
  A 1.81 1.80 -67.4 0 0 399.70 335.62
  C 402.78 339.53 404.04 344.15 407.32 347.94
  Q 407.65 348.32 408.12 348.47
  C 409.47 348.91 410.34 349.29 410.93 350.72
  Q 412.77 355.12 414.11 359.81
  Q 414.26 360.34 413.74 360.50
  C 410.24 361.56 406.83 359.91 403.15 358.35
  Q 402.72 358.17 402.27 358.25
  L 397.74 359.03
  A 0.65 0.65 0.0 0 0 397.55 360.25
  Q 402.06 362.57 407.37 363.05
  Q 407.88 363.09 408.31 363.38
  Q 410.52 364.87 413.13 364.54
  Q 413.67 364.48 414.16 364.70
  L 416.69 365.84
  A 0.37 0.37 0.0 0 0 417.20 365.43
  C 416.87 363.76 413.80 363.68 412.49 362.65
  Q 411.69 362.03 412.70 362.03
  L 416.56 362.04
  C 419.78 362.52 419.81 370.58 419.89 372.74
  C 420.09 377.78 418.12 382.08 416.09 386.76
  C 413.94 391.68 413.38 396.28 408.75 400.58
  Q 405.03 404.04 404.34 405.00
  C 397.61 414.31 396.98 420.36 383.01 417.76
  Q 369.97 415.32 358.10 409.26
  C 356.14 408.26 354.15 407.83 352.12 407.76
  A 2.51 2.51 0.0 0 0 349.52 410.31
  C 349.62 416.98 351.11 423.50 352.12 429.48
  Q 357.29 460.24 363.77 490.74
  Q 365.04 496.74 366.50 513.00
  L 317.73 513.00
  L 314.70 503.69
  Q 314.53 503.17 314.00 503.30
  Q 312.53 503.66 311.38 504.53
  C 308.94 506.38 306.86 507.45 304.72 509.12
  Q 304.30 509.45 303.77 509.52
  Q 301.42 509.82 299.75 511.44
  Q 299.44 511.74 299.00 511.76
  Q 297.01 511.85 295.65 513.00
  L 290.57 513.00
  Q 302.90 507.94 313.29 501.11
  Q 314.11 500.57 313.89 499.61
  L 311.24 488.19
  Q 311.11 487.60 310.50 487.65
  L 308.91 487.77
  Q 308.39 487.81 308.10 487.38
  Q 307.25 486.12 307.22 484.60
  Q 307.21 484.11 306.98 483.67
  C 304.64 479.07 309.17 476.98 308.16 472.71
  A 0.83 0.83 0.0 0 0 306.76 472.32
  L 304.96 474.12
  Q 304.23 474.85 304.37 473.82
  C 304.92 470.06 307.08 465.96 306.93 462.33
  C 306.76 458.12 307.12 453.98 306.59 449.91
  C 305.44 441.19 304.36 433.23 305.01 424.40
  Q 305.05 423.93 304.74 423.57
  L 302.33 420.77
  Q 301.91 420.28 302.26 419.75
  Q 306.55 413.24 305.62 404.82
  Q 304.89 398.21 304.15 391.61
  C 303.11 382.39 303.14 372.11 302.02 362.28
  A 1.57 1.56 -78.9 0 0 301.22 361.08
  Q 295.14 357.80 289.30 353.94
  C 285.18 351.23 282.15 348.23 286.29 343.62
  Q 286.59 343.29 286.19 343.09
  L 282.18 341.09
  A 1.72 1.68 1.3 0 1 281.38 340.27
  Q 279.10 335.36 283.12 331.84
  A 0.71 0.68 21.1 0 1 283.52 331.67
  L 289.28 331.02
  A 0.31 0.31 0.0 0 0 289.36 330.42
  L 283.22 327.90
  A 1.10 1.08 85.6 0 1 282.68 327.43
  C 280.91 324.30 281.62 317.95 285.95 317.17
  Q 288.49 316.72 286.33 315.32
  C 282.65 312.92 284.04 306.78 288.29 306.09
  Q 289.75 305.85 292.14 306.78
  Q 298.00 309.05 304.31 310.06
  A 0.47 0.46 63.5 0 0 304.60 309.19
  L 304.00 308.87
  Q 303.52 308.61 303.35 308.10
  C 302.82 306.58 301.64 305.51 301.19 304.14
  Q 300.19 301.16 300.05 297.99
  Q 300.02 297.43 299.71 296.96
  L 295.16 290.03
  A 0.63 0.62 -57.8 0 0 294.02 290.29
  Q 293.87 291.40 292.57 290.90
  Q 289.84 289.85 288.54 287.24
  Q 288.34 286.84 287.90 286.69
  Q 282.48 284.93 276.93 286.80
  Q 276.47 286.96 276.12 286.61
  C 273.68 284.13 273.45 281.30 271.55 279.06
  C 263.73 269.81 266.26 265.33 272.92 257.16
  C 276.57 252.68 275.26 248.60 276.39 243.48
  A 0.24 0.24 0.0 0 0 276.00 243.24
  C 257.99 257.81 232.02 256.78 214.76 241.81
  A 0.36 0.36 0.0 0 0 214.20 242.22
  C 217.26 249.25 218.86 256.28 220.58 263.72
  C 221.85 269.27 221.54 275.68 223.13 281.66
  Q 223.49 283.03 222.13 282.64
  C 216.23 280.96 214.89 277.39 210.74 273.73
  A 0.23 0.23 0.0 0 1 210.95 273.33
  L 213.03 273.81
  A 0.58 0.58 0.0 0 0 213.35 272.70
  Q 212.55 272.42 212.70 271.54
  A 0.66 0.66 0.0 0 0 211.89 270.78
  Q 210.88 271.04 210.04 270.53
  Q 209.45 270.18 209.93 269.69
  L 210.44 269.18
  Q 210.72 268.91 210.80 268.52
  Q 211.30 266.11 213.64 265.20
  Q 214.13 265.00 214.05 264.48
  L 213.72 262.27
  Q 213.64 261.74 214.15 261.58
  Q 214.95 261.33 214.97 260.44
  Q 214.98 259.94 214.53 259.71
  Q 210.91 257.87 207.27 259.32
  Q 206.68 259.55 206.57 258.93
  Q 206.02 255.94 208.22 252.68
  Q 208.43 251.93 209.57 251.76
  A 5.49 3.81 -24.7 0 0 210.31 251.60
  Q 210.91 251.42 211.01 250.98
  Q 211.11 250.54 211.55 250.59
  Q 212.87 250.72 213.38 250.05
  A 1.52 1.51 0.9 0 0 211.29 247.90
  C 209.27 249.34 204.68 250.86 202.53 248.70
  Q 201.97 248.14 202.71 247.86
  L 205.10 246.96
  Q 205.56 246.79 205.73 246.32
  Q 205.88 245.87 205.52 245.48
  A 4.43 2.95 38.1 0 1 204.23 241.55
  C 205.23 238.94 205.51 234.12 208.14 232.62
  Q 208.74 232.28 209.03 232.90
  L 211.60 238.18
  Q 211.75 238.50 212.02 238.27
  Q 212.12 238.19 212.18 238.07
  Q 212.32 237.81 212.18 237.39
  Q 208.21 225.79 203.71 214.34
  A 0.98 0.92 43.1 0 1 203.67 213.74
  Q 204.42 210.87 202.01 209.49
  A 0.80 0.80 0.0 0 1 201.64 208.56
  L 203.75 201.61
  Q 203.91 201.08 203.39 200.92
  L 202.72 200.71
  A 0.51 0.50 15.2 0 0 202.07 201.08
  L 200.78 206.58
  Q 200.69 207.00 200.26 207.00
  Q 200.13 207.00 199.99 207.01
  A 0.39 0.39 0.0 0 1 199.58 206.51
  L 201.52 199.85
  Q 205.02 195.35 210.12 191.44
  A 0.60 0.60 0.0 0 0 210.18 190.54
  Q 208.95 189.32 207.31 188.68
  A 2.03 2.00 79.0 0 1 206.55 188.16
  Q 197.74 178.26 193.22 165.27
  C 192.25 162.48 190.20 160.05 189.21 157.40
  C 185.30 146.85 184.24 135.76 180.31 125.07
  C 176.44 114.55 177.69 101.58 180.39 90.95
  C 181.05 88.35 180.63 85.49 183.08 82.64
  A 1.21 1.20 -28.2 0 0 183.36 81.72
  Q 182.89 77.58 186.70 75.39
  Q 187.04 75.19 187.26 74.88
  C 190.55 70.20 198.55 62.73 203.15 61.94
  Q 203.84 61.82 203.74 61.12
  L 203.67 60.62
  Q 203.59 60.03 204.18 59.92
  L 207.73 59.21
  A 0.63 0.63 0.0 0 0 208.24 58.60
  L 208.27 57.16
  A 0.84 0.84 0.0 0 1 208.84 56.38
  Q 211.02 55.65 213.11 56.39
  Q 213.63 56.58 213.97 56.13
  C 215.38 54.28 217.29 54.56 219.02 52.88
  Q 219.37 52.53 219.86 52.39
  L 224.30 51.15
  Q 224.84 51.00 225.38 51.12
  L 230.11 52.21
  Q 230.60 52.33 231.03 52.05
  C 232.65 51.02 237.19 51.29 239.17 51.45
  Q 239.57 51.48 239.48 51.08
  L 239.15 49.62
  A 0.78 0.78 0.0 0 0 238.61 49.04
  L 234.69 47.89
  Q 233.41 47.51 234.74 47.37
  Q 239.07 46.91 242.55 49.62
  Q 243.01 49.97 243.55 49.79
  Q 246.45 48.80 249.30 50.10
  Q 249.83 50.34 250.34 50.05
  Q 254.27 47.74 258.71 48.58
  Q 259.43 48.72 259.48 49.45
  Q 259.52 49.89 260.37 50.16
  Q 260.82 50.29 260.97 49.85
  L 261.05 49.59
  Q 261.23 49.06 261.78 49.21
  L 267.41 50.76
  A 0.73 0.73 0.0 0 1 267.94 51.34
  Q 268.07 52.11 268.96 51.99
  Q 269.51 51.91 269.50 51.36
  Q 269.50 51.21 269.50 51.07
  Q 269.50 50.42 270.14 50.55
  Q 273.86 51.34 276.00 54.39
  Q 276.38 54.92 277.02 55.04
  Q 283.84 56.31 289.80 59.98
  A 1.03 0.94 89.8 0 1 290.16 60.37
  Q 291.56 63.13 294.71 62.90
  A 1.10 1.06 65.0 0 1 295.54 63.22
  C 297.31 65.02 299.15 64.66 300.82 65.33
  Q 304.90 66.96 306.91 70.58
  C 308.37 73.21 311.58 74.06 313.71 76.20
  C 316.83 79.35 323.22 82.91 322.25 87.98
  Q 322.02 89.16 322.61 90.36
  Q 322.83 90.80 322.77 91.29
  Q 322.49 93.74 320.53 95.08
  C 318.37 96.55 319.10 98.55 318.31 100.35
  C 315.44 106.97 312.48 112.73 309.03 121.52
  Q 308.85 121.98 308.95 122.45
  C 309.65 125.89 309.02 129.31 309.59 132.43
  Q 310.06 135.00 310.64 137.53
  C 311.45 141.08 309.34 146.41 308.70 150.07
  Q 308.61 150.57 308.79 151.05
  Q 313.47 163.54 311.01 176.34
  C 309.87 182.24 309.48 190.57 307.71 194.44
  C 306.17 197.84 301.77 209.20 304.13 212.28
  Z
  M 255.47 50.85
  Q 254.39 49.59 252.80 50.03
  A 0.27 0.27 0.0 0 0 252.80 50.55
  L 255.19 51.28
  A 0.27 0.27 0.0 0 0 255.47 50.85
  Z
  M 244.35 73.78
  C 243.40 73.42 242.48 72.50 241.35 72.24
  A 0.38 0.38 0.0 0 0 241.10 72.95
  L 244.52 74.68
  A 0.34 0.34 0.0 0 0 244.93 74.15
  Q 244.73 73.92 244.35 73.78
  Z
  M 191.4474 74.3483
  A 0.71 0.71 0.0 0 0 190.5642 73.8708
  L 188.4559 74.4993
  A 0.71 0.71 0.0 0 0 187.9783 75.3825
  L 188.0526 75.6317
  A 0.71 0.71 0.0 0 0 188.9358 76.1092
  L 191.0441 75.4807
  A 0.71 0.71 0.0 0 0 191.5217 74.5975
  L 191.4474 74.3483
  Z
  M 277.0052 263.8304
  A 2.53 0.64 -37.2 0 0 274.6031 264.8502
  A 2.53 0.64 -37.2 0 0 272.9748 266.8896
  A 2.53 0.64 -37.2 0 0 275.3769 265.8698
  A 2.53 0.64 -37.2 0 0 277.0052 263.8304
  Z
  M 345.00 279.94
  C 342.12 274.95 336.75 269.37 332.67 265.87
  A 0.71 0.71 0.0 0 0 331.57 266.72
  C 333.48 270.58 334.28 274.91 338.80 277.19
  Q 341.70 278.66 344.16 280.65
  A 0.56 0.56 0.0 0 0 345.00 279.94
  Z
  M 221.4239 280.7181
  A 4.54 2.37 50.4 0 0 220.3561 275.7093
  A 4.54 2.37 50.4 0 0 215.6361 273.7219
  A 4.54 2.37 50.4 0 0 216.7039 278.7307
  A 4.54 2.37 50.4 0 0 221.4239 280.7181
  Z
  M 360.00 341.78
  L 360.00 344.25
  Q 360.00 344.50 360.25 344.50
  Q 360.38 344.50 360.52 344.50
  A 0.13 0.12 2.4 0 0 360.65 344.39
  L 360.94 342.47
  Q 361.04 341.80 361.72 341.77
  Q 362.80 341.72 363.35 340.88
  Q 363.68 340.38 364.22 340.62
  Q 368.54 342.48 369.60 346.94
  Q 369.73 347.45 370.16 347.73
  C 373.01 349.61 374.29 351.80 371.68 354.81
  Q 371.34 355.20 371.49 355.69
  L 371.77 356.59
  Q 371.94 357.12 372.43 356.88
  L 375.24 355.51
  Q 375.80 355.24 376.20 355.72
  C 378.14 358.05 380.45 358.34 382.23 360.61
  A 1.69 1.65 -10.5 0 0 383.08 361.18
  Q 385.38 361.85 387.20 363.44
  Q 387.60 363.79 388.09 363.62
  Q 390.49 362.80 392.63 364.26
  A 0.50 0.49 22.5 0 0 393.40 363.95
  L 393.51 363.39
  Q 393.60 362.93 393.16 362.78
  C 388.59 361.26 379.62 358.15 376.99 353.99
  C 374.95 350.77 370.52 347.36 369.78 343.90
  Q 369.68 343.45 369.33 343.14
  C 364.89 339.25 360.60 334.31 354.27 331.21
  A 0.58 0.58 0.0 0 0 353.43 331.79
  L 353.84 336.25
  Q 353.86 336.43 353.68 336.45
  L 353.25 336.51
  Q 352.78 336.58 352.79 337.05
  C 352.95 344.20 349.86 350.72 346.84 357.15
  C 342.93 365.48 337.59 371.59 330.62 377.16
  C 327.42 379.72 324.55 379.68 320.85 378.57
  A 0.47 0.47 0.0 0 0 320.25 379.02
  L 320.25 379.46
  Q 320.25 379.82 320.59 379.94
  Q 325.81 381.77 329.94 378.92
  C 337.26 373.86 344.26 365.85 347.92 357.32
  C 350.95 350.25 353.46 345.53 354.16 338.01
  A 0.71 0.70 37.0 0 1 355.52 337.82
  L 356.83 341.16
  Q 356.99 341.57 357.43 341.54
  L 359.55 341.37
  Q 360.00 341.33 360.00 341.78
  Z"
/>
<path fill="#fcfcfc" d="
  M 244.35 73.78
  Q 244.73 73.92 244.93 74.15
  A 0.34 0.34 0.0 0 1 244.52 74.68
  L 241.10 72.95
  A 0.38 0.38 0.0 0 1 241.35 72.24
  C 242.48 72.50 243.40 73.42 244.35 73.78
  Z"
/>
<rect fill="#fcfcfc" x="-1.81" y="-0.84" transform="translate(189.75,74.99) rotate(-16.6)" width="3.62" height="1.68" rx="0.71"/>
<path fill="#fcfcfc" d="
  M 201.52 199.85
  L 199.58 206.51
  A 0.39 0.39 0.0 0 0 199.99 207.01
  Q 200.13 207.00 200.26 207.00
  Q 200.69 207.00 200.78 206.58
  L 202.07 201.08
  A 0.51 0.50 15.2 0 1 202.72 200.71
  L 203.39 200.92
  Q 203.91 201.08 203.75 201.61
  L 201.64 208.56
  A 0.80 0.80 0.0 0 0 202.01 209.49
  Q 204.42 210.87 203.67 213.74
  A 0.98 0.92 43.1 0 0 203.71 214.34
  Q 208.21 225.79 212.18 237.39
  Q 212.32 237.81 212.18 238.07
  Q 212.12 238.19 212.02 238.27
  Q 211.75 238.50 211.60 238.18
  L 209.03 232.90
  Q 208.74 232.28 208.14 232.62
  C 205.51 234.12 205.23 238.94 204.23 241.55
  A 4.43 2.95 38.1 0 0 205.52 245.48
  Q 205.88 245.87 205.73 246.32
  Q 205.56 246.79 205.10 246.96
  L 202.71 247.86
  Q 201.97 248.14 202.53 248.70
  C 204.68 250.86 209.27 249.34 211.29 247.90
  A 1.52 1.51 0.9 0 1 213.38 250.05
  Q 212.87 250.72 211.55 250.59
  Q 211.11 250.54 211.01 250.98
  Q 210.91 251.42 210.31 251.60
  A 5.49 3.81 -24.7 0 1 209.57 251.76
  Q 208.43 251.93 208.22 252.68
  Q 202.46 254.68 204.40 258.62
  Q 204.70 259.21 204.13 259.54
  L 202.96 260.21
  A 0.79 0.79 0.0 0 1 201.77 259.47
  L 201.99 256.38
  A 0.82 0.82 0.0 0 0 201.17 255.50
  L 199.96 255.50
  Q 199.38 255.50 199.12 254.99
  Q 196.66 250.10 195.62 244.74
  A 0.20 0.20 0.0 0 0 195.23 244.71
  C 194.26 247.29 196.14 252.20 196.84 254.26
  C 197.43 256.00 199.02 256.49 199.23 258.77
  A 1.02 0.99 27.6 0 0 199.37 259.20
  L 200.69 261.31
  L 201.47 263.75
  Q 201.55 269.74 203.31 275.11
  Q 204.44 278.57 204.72 280.43
  C 205.27 284.08 204.65 286.76 205.10 289.59
  A 0.29 0.28 -43.7 0 0 205.66 289.60
  Q 206.18 287.21 208.23 286.06
  A 1.29 1.22 88.4 0 0 208.75 285.48
  Q 209.48 283.81 210.97 282.75
  A 0.54 0.53 -35.1 0 1 211.73 282.88
  L 215.43 288.24
  Q 215.77 288.74 215.40 289.22
  Q 215.00 289.72 214.36 290.14
  A 1.57 1.34 -72.0 0 0 215.48 292.84
  Q 216.35 292.34 216.25 291.51
  Q 216.19 290.95 216.75 290.99
  Q 217.67 291.06 217.90 292.22
  A 1.72 1.68 -34.1 0 1 217.65 293.45
  Q 212.32 301.68 210.17 311.75
  Q 209.60 314.45 207.02 314.34
  C 207.49 309.17 207.86 305.57 204.75 301.84
  Q 204.29 301.29 204.23 302.00
  Q 204.20 302.44 204.52 302.84
  Q 204.86 303.27 204.54 303.71
  L 202.06 307.16
  Q 201.70 307.66 201.09 307.80
  Q 199.14 308.25 198.64 310.39
  A 0.75 0.75 0.0 0 1 198.38 310.80
  Q 196.92 312.00 194.55 315.79
  Q 189.69 323.56 180.82 328.97
  C 174.94 332.56 170.44 342.19 166.13 349.76
  Q 165.93 350.11 165.54 350.01
  Q 165.09 349.90 164.80 350.32
  C 160.03 357.27 165.03 372.19 168.19 379.30
  A 0.64 0.64 0.0 0 1 167.79 380.17
  Q 165.74 380.82 164.87 379.25
  A 1.47 1.43 82.1 0 0 163.94 378.53
  Q 158.56 377.15 153.83 379.61
  A 0.94 0.94 0.0 0 0 153.42 380.84
  L 156.85 388.04
  A 1.89 1.89 0.0 0 1 155.54 390.70
  L 151.80 391.51
  Q 151.25 391.63 150.74 391.40
  Q 144.96 388.79 138.85 390.59
  Q 138.24 390.77 138.11 391.39
  Q 137.49 394.58 135.20 396.90
  Q 134.83 397.27 134.32 397.24
  Q 133.81 397.20 133.46 397.46
  C 132.46 398.17 133.04 399.49 133.95 399.99
  Q 134.41 400.23 134.41 400.75
  C 134.40 402.64 135.86 402.99 136.59 404.09
  Q 137.40 405.30 138.15 406.57
  Q 138.41 407.00 138.89 407.16
  Q 140.82 407.79 142.44 406.69
  A 0.69 0.69 0.0 0 1 143.41 406.91
  Q 143.80 407.58 143.17 407.92
  Q 141.64 408.75 139.17 409.18
  Q 138.60 409.28 138.78 409.83
  C 139.93 413.38 142.98 419.09 141.77 423.64
  Q 141.63 424.18 141.11 423.98
  Q 139.47 423.35 139.47 421.30
  C 139.46 417.77 138.82 414.34 137.30 411.14
  C 136.15 408.72 135.52 406.09 134.38 403.96
  Q 131.05 397.76 127.35 391.77
  C 125.92 389.45 125.05 386.73 123.77 384.30
  A 0.64 0.64 0.0 0 0 122.57 384.69
  L 123.19 388.88
  Q 123.26 389.39 122.87 389.72
  C 117.53 394.21 120.10 398.26 119.11 403.95
  C 118.60 406.85 116.43 408.41 116.51 412.00
  Q 116.53 412.73 117.25 412.82
  L 119.27 413.08
  A 0.32 0.32 0.0 0 1 119.40 413.66
  C 116.85 415.29 113.23 415.27 111.19 415.69
  C 108.08 416.32 104.86 416.26 101.63 416.65
  Q 96.08 417.32 90.67 415.54
  Q 90.19 415.39 89.97 414.92
  C 88.83 412.46 88.70 409.14 88.23 407.14
  Q 86.84 401.27 87.41 395.12
  Q 87.47 394.50 86.87 394.66
  Q 83.98 395.40 81.76 393.81
  Q 81.26 393.45 81.08 394.03
  Q 80.26 396.57 77.64 396.54
  Q 77.15 396.53 76.96 396.97
  Q 71.50 409.17 69.55 416.52
  Q 67.82 423.01 67.00 425.24
  Q 66.77 425.86 67.33 427.17
  Q 67.55 427.67 67.46 428.21
  Q 66.82 432.13 70.49 433.83
  A 0.43 0.43 0.0 0 1 70.60 434.54
  Q 70.33 434.78 69.88 434.89
  Q 62.94 429.07 57.83 421.87
  Q 56.17 414.73 58.04 408.01
  A 1.21 1.18 -52.2 0 0 57.94 407.12
  L 53.65 399.22
  Q 53.43 398.81 52.99 398.97
  L 52.25 399.24
  C 51.84 395.49 51.08 392.16 51.00 388.21
  C 50.83 380.07 49.41 372.40 50.02 362.88
  Q 50.16 360.74 51.32 358.90
  C 58.91 346.86 67.31 333.58 71.98 322.49
  C 75.94 313.11 79.71 303.62 84.76 294.93
  Q 90.40 285.23 96.50 275.81
  Q 101.17 268.60 109.55 253.56
  C 114.80 244.14 128.54 235.33 137.98 230.53
  Q 150.86 223.99 168.20 218.29
  Q 172.70 216.81 177.41 214.41
  Q 187.46 209.29 198.19 205.70
  Q 198.70 205.53 198.82 205.01
  Q 199.51 201.95 201.52 199.85
  Z
  M 204.99 225.41
  Q 203.62 227.27 203.86 229.59
  A 0.44 0.44 0.0 0 0 204.70 229.71
  C 205.51 227.63 206.60 225.24 205.73 222.98
  A 0.23 0.23 0.0 0 0 205.28 223.06
  L 205.24 224.67
  A 1.44 1.39 64.8 0 1 204.99 225.41
  Z
  M 82.99 368.30
  L 70.35 367.34
  Q 69.82 367.30 69.36 367.56
  Q 67.51 368.59 66.19 367.03
  A 0.77 0.77 0.0 0 1 66.55 365.80
  C 72.06 364.11 80.69 365.62 78.59 356.20
  Q 78.27 354.78 79.03 354.05
  Q 79.36 353.73 79.27 353.28
  C 78.70 350.49 79.28 349.43 80.65 346.92
  C 81.82 344.79 80.92 342.71 82.82 340.66
  Q 83.11 340.35 83.03 339.93
  Q 82.70 338.13 83.69 336.67
  A 1.38 1.36 58.5 0 0 83.91 335.72
  C 83.48 332.40 83.09 330.07 84.36 326.68
  Q 85.44 323.76 85.73 320.65
  C 85.90 318.75 86.63 317.30 87.10 315.48
  C 87.79 312.84 89.36 311.10 90.37 308.61
  C 91.32 306.24 93.11 304.21 92.59 300.81
  A 2.01 1.97 -39.6 0 1 92.69 299.85
  C 93.53 297.54 93.88 295.43 94.87 293.03
  C 95.81 290.74 96.42 285.41 98.66 284.01
  Q 99.07 283.74 99.30 283.31
  Q 101.67 278.65 103.51 273.82
  Q 103.98 272.59 103.68 271.92
  A 0.37 0.37 0.0 0 0 103.00 271.91
  Q 96.73 285.15 87.46 296.44
  Q 86.88 297.15 85.55 297.20
  Q 85.04 297.22 84.77 297.65
  Q 82.62 301.02 80.84 304.61
  Q 80.66 304.98 80.71 305.36
  Q 80.77 305.92 80.95 306.20
  A 0.79 0.79 0.0 0 0 82.26 306.25
  L 83.72 304.19
  A 0.63 0.63 0.0 0 1 84.77 304.88
  Q 83.13 307.65 82.88 310.81
  C 82.71 312.84 81.19 315.02 80.79 317.20
  Q 79.02 326.67 75.98 335.77
  C 75.33 337.72 75.55 339.57 74.56 341.26
  Q 73.46 343.15 71.98 344.76
  Q 71.65 345.13 71.51 345.61
  C 70.61 348.72 68.45 353.35 64.76 353.47
  Q 64.24 353.49 63.94 353.90
  C 62.60 355.71 60.50 356.27 59.01 357.31
  Q 57.17 358.59 55.17 359.71
  Q 54.74 359.95 54.51 360.39
  Q 54.05 361.31 52.96 360.97
  A 0.59 0.58 -63.7 0 0 52.29 361.20
  L 50.99 363.06
  A 0.95 0.94 42.7 0 0 51.04 364.19
  C 54.47 368.40 59.91 369.32 65.03 369.92
  C 71.56 370.68 77.51 372.40 84.01 372.90
  Q 84.84 373.02 85.19 373.38
  A 0.60 0.60 0.0 0 1 84.66 374.39
  L 72.26 372.42
  Q 71.94 372.37 71.75 372.63
  C 69.68 375.46 66.14 374.47 63.05 374.51
  A 1.35 1.32 -27.2 0 1 62.24 374.26
  Q 60.70 373.17 59.10 374.19
  Q 58.67 374.46 58.51 374.94
  C 56.18 381.69 65.76 381.98 69.50 380.48
  A 0.42 0.42 0.0 0 1 70.04 381.03
  Q 68.65 384.30 65.45 385.75
  Q 65.03 385.94 64.72 386.27
  Q 63.87 387.19 62.74 387.67
  Q 62.35 387.84 62.13 388.21
  L 59.77 392.20
  Q 59.50 392.65 59.52 393.17
  Q 59.60 394.88 57.87 395.16
  A 0.58 0.58 0.0 0 0 57.38 395.78
  Q 57.55 398.11 56.84 400.31
  Q 56.66 400.84 56.91 401.35
  L 58.30 404.23
  Q 58.49 404.62 58.66 404.22
  C 63.87 391.80 79.30 379.31 92.77 377.85
  Q 93.06 377.82 93.00 378.28
  Q 92.95 378.65 92.59 378.75
  L 87.89 380.03
  A 0.33 0.33 0.0 0 0 87.97 380.68
  C 91.53 380.79 93.72 378.40 96.18 377.44
  Q 99.42 376.17 102.88 375.31
  A 0.33 0.33 0.0 0 1 103.26 375.78
  Q 102.41 377.44 100.70 377.38
  Q 100.30 377.37 99.95 377.55
  L 95.87 379.65
  Q 95.34 379.92 94.93 380.34
  L 94.37 380.90
  Q 93.92 381.35 94.54 381.47
  C 98.79 382.29 101.48 379.71 104.45 376.54
  Q 104.79 376.18 105.27 376.04
  C 111.27 374.41 113.63 374.83 119.40 376.80
  A 0.63 0.63 0.0 0 0 120.12 376.58
  L 122.88 372.81
  Q 123.21 372.36 123.72 372.16
  C 129.93 369.77 134.46 374.32 139.46 368.85
  A 1.74 1.64 74.0 0 0 139.88 368.04
  Q 141.50 360.87 148.08 358.51
  C 151.32 357.35 153.50 355.56 156.55 354.35
  C 160.03 352.98 161.84 350.93 164.50 348.62
  Q 164.81 348.35 164.77 347.94
  L 164.44 344.71
  Q 164.37 344.05 164.97 343.76
  Q 168.56 341.99 168.90 337.98
  A 1.33 1.32 -20.7 0 1 169.27 337.17
  C 173.41 332.97 169.28 330.06 170.52 326.56
  Q 171.83 322.89 171.75 319.65
  A 1.37 1.36 -26.8 0 0 169.30 318.85
  Q 166.97 321.86 163.78 324.02
  A 1.06 1.05 -6.8 0 1 162.20 322.78
  Q 163.78 318.59 166.98 315.43
  A 1.59 1.59 0.0 0 1 168.01 314.98
  L 171.75 314.76
  A 0.73 0.73 0.0 0 0 172.43 314.17
  Q 173.01 310.99 171.22 307.54
  Q 168.92 303.11 168.24 295.75
  Q 167.75 290.41 165.04 282.11
  C 161.70 271.84 159.07 261.86 155.04 251.96
  A 0.50 0.49 -52.0 0 0 154.09 252.08
  Q 153.58 255.44 154.70 258.67
  C 155.92 262.21 155.33 265.41 155.08 268.96
  C 154.95 270.93 155.94 272.55 153.46 273.93
  Q 152.89 274.25 152.59 273.67
  Q 152.52 273.54 152.48 273.40
  Q 152.39 273.05 152.07 272.87
  Q 149.68 271.60 148.99 273.29
  Q 148.80 273.75 148.96 274.22
  C 149.43 275.58 150.28 277.50 149.43 278.74
  Q 148.75 279.74 147.32 279.42
  Q 146.87 279.32 146.75 278.88
  L 141.71 261.01
  A 2.07 2.07 0.0 0 0 137.65 261.44
  L 136.67 276.60
  Q 136.63 277.17 136.26 277.60
  Q 135.63 278.34 136.29 279.18
  A 1.17 1.16 -57.3 0 1 136.51 280.19
  Q 135.47 284.19 136.11 288.31
  A 0.82 0.79 56.7 0 1 136.01 288.83
  C 134.34 291.69 134.61 293.87 133.39 296.80
  A 0.91 0.91 0.0 0 1 131.65 296.62
  Q 130.59 291.10 132.04 285.25
  C 134.15 276.71 131.44 271.21 128.85 263.97
  A 0.39 0.39 0.0 0 0 128.09 264.05
  L 127.93 265.21
  Q 127.88 265.63 127.57 265.92
  Q 126.98 266.48 126.77 267.25
  A 2.01 2.01 0.0 0 1 123.15 267.84
  L 121.20 264.88
  Q 120.87 264.38 120.29 264.53
  Q 119.11 264.84 119.06 266.01
  C 118.95 268.65 118.36 270.81 117.82 273.40
  Q 117.72 273.89 117.45 274.31
  Q 115.93 276.68 118.30 278.81
  Q 118.68 279.15 118.43 279.60
  Q 117.02 282.08 114.67 283.47
  Q 114.26 283.70 114.27 284.17
  L 114.41 295.57
  A 0.44 0.44 0.0 0 1 113.58 295.77
  C 113.07 294.69 112.61 293.08 111.72 292.35
  C 109.37 290.42 106.29 293.31 107.23 296.03
  Q 108.00 298.25 109.86 299.75
  Q 110.29 300.09 110.40 300.63
  Q 111.56 306.30 107.85 310.51
  A 0.88 0.87 -40.3 0 0 107.76 311.55
  Q 108.41 312.62 107.64 313.37
  Q 107.21 313.78 107.47 314.32
  Q 109.42 318.52 105.24 320.15
  Q 104.89 320.28 104.65 319.99
  L 103.28 318.35
  A 1.29 1.29 0.0 0 0 101.00 319.19
  Q 101.08 325.98 101.96 332.48
  Q 102.28 334.90 101.71 339.75
  Q 101.40 342.37 99.57 342.74
  C 96.93 343.26 92.58 341.83 90.30 340.45
  A 0.90 0.90 0.0 0 0 88.98 341.52
  Q 90.42 345.66 94.15 347.90
  A 1.32 1.32 0.0 0 0 95.32 348.00
  Q 96.47 347.56 97.64 348.01
  Q 98.13 348.21 98.58 347.92
  Q 101.76 345.86 105.03 344.04
  Q 106.03 343.48 106.88 343.84
  Q 107.66 344.17 106.93 344.58
  L 95.36 351.09
  A 0.72 0.71 -16.5 0 0 94.99 351.76
  Q 95.30 356.23 99.81 357.15
  Q 100.34 357.26 100.66 357.69
  C 102.23 359.83 103.00 363.32 101.47 365.67
  C 100.00 367.93 96.66 367.64 94.38 368.17
  C 90.43 369.09 86.87 368.71 82.99 368.30
  Z
  M 118.32 377.41
  Q 113.40 376.88 108.85 378.89
  Q 108.43 379.07 108.36 379.52
  L 108.01 381.83
  A 0.69 0.68 76.3 0 0 109.09 382.49
  Q 113.22 379.49 118.22 378.58
  Q 118.63 378.51 118.73 378.10
  Q 118.88 377.47 118.32 377.41
  Z
  M 72.69 393.13
  C 71.72 394.94 69.55 397.03 68.98 398.99
  Q 67.21 405.06 61.77 406.96
  Q 61.05 407.22 61.04 407.98
  L 60.97 412.40
  Q 60.97 412.93 60.79 413.42
  Q 59.67 416.60 61.07 419.66
  Q 61.27 420.08 61.17 420.53
  Q 60.62 422.97 62.68 424.81
  A 1.70 1.70 0.0 0 0 65.43 424.06
  Q 69.32 411.88 74.45 399.20
  Q 76.37 394.45 79.40 390.41
  C 80.38 389.10 80.54 387.50 79.12 386.55
  A 0.77 0.76 -47.1 0 0 78.22 386.59
  Q 74.72 389.37 72.69 393.13
  Z
  M 71.07 390.13
  Q 69.62 392.97 68.07 395.78
  C 66.76 398.16 64.36 400.29 63.18 403.29
  Q 62.99 403.78 63.51 403.70
  Q 65.85 403.36 66.49 401.68
  Q 68.84 395.54 72.72 390.37
  A 0.64 0.64 0.0 0 0 72.41 389.38
  Q 71.58 389.11 71.07 390.13
  Z"
/>
<path fill="#fcfcfc" d="
  M 304.13 212.28
  Q 307.75 214.41 314.57 216.43
  Q 323.73 219.13 332.98 221.56
  Q 346.98 225.24 350.98 227.23
  Q 354.75 229.10 362.96 235.67
  Q 365.41 237.63 366.97 240.28
  C 373.32 251.07 376.67 261.74 381.27 272.01
  Q 380.69 272.41 379.96 272.56
  Q 379.49 272.65 379.65 273.10
  C 384.16 285.77 389.88 297.59 394.44 310.80
  C 395.81 314.77 397.38 318.14 399.42 321.44
  A 0.93 0.93 0.0 0 0 401.10 320.66
  Q 400.08 317.52 401.45 316.89
  C 405.64 327.27 410.02 337.81 412.83 348.61
  Q 414.36 354.48 415.74 360.40
  Q 415.88 360.97 416.56 362.04
  L 412.70 362.03
  Q 411.69 362.03 412.49 362.65
  C 413.80 363.68 416.87 363.76 417.20 365.43
  A 0.37 0.37 0.0 0 1 416.69 365.84
  L 414.16 364.70
  Q 413.67 364.48 413.13 364.54
  Q 410.52 364.87 408.31 363.38
  Q 407.88 363.09 407.37 363.05
  Q 402.06 362.57 397.55 360.25
  A 0.65 0.65 0.0 0 1 397.74 359.03
  L 402.27 358.25
  Q 402.72 358.17 403.15 358.35
  C 406.83 359.91 410.24 361.56 413.74 360.50
  Q 414.26 360.34 414.11 359.81
  Q 412.77 355.12 410.93 350.72
  C 410.34 349.29 409.47 348.91 408.12 348.47
  Q 407.65 348.32 407.32 347.94
  C 404.04 344.15 402.78 339.53 399.70 335.62
  A 1.81 1.80 -67.4 0 1 399.34 334.74
  C 398.69 329.27 399.23 321.57 390.99 322.14
  A 0.70 0.70 0.0 0 1 390.52 320.88
  L 392.74 319.19
  A 0.63 0.63 0.0 0 0 392.91 318.37
  Q 390.44 313.95 389.21 309.06
  Q 389.11 308.70 388.83 308.46
  Q 387.37 307.24 386.12 308.06
  A 1.07 1.06 -21.6 0 1 384.49 307.36
  L 382.74 297.72
  Q 382.65 297.24 382.29 296.92
  C 379.93 294.78 379.83 288.99 378.88 285.63
  C 377.58 281.02 377.03 275.74 376.24 270.72
  C 375.83 268.15 374.08 265.42 375.03 261.82
  A 1.36 1.36 0.0 0 0 374.95 260.89
  C 372.08 254.71 370.66 248.05 366.28 242.92
  A 0.91 0.91 0.0 0 0 364.68 243.39
  C 364.05 247.84 362.14 251.36 363.78 255.81
  Q 364.46 257.65 362.58 257.09
  Q 359.91 256.31 358.76 253.85
  A 1.32 1.32 0.0 0 0 356.38 253.82
  Q 355.58 255.44 353.89 256.14
  Q 353.48 256.31 353.29 256.70
  Q 351.48 260.34 351.67 264.28
  Q 351.71 265.01 350.97 265.01
  L 348.11 264.98
  A 0.85 0.84 -87.5 0 1 347.27 264.06
  Q 347.53 260.98 344.71 260.16
  Q 344.00 259.96 344.31 259.28
  L 345.45 256.79
  Q 345.68 256.31 345.68 255.79
  C 345.74 252.16 345.41 247.83 341.64 246.96
  Q 341.14 246.85 340.75 246.52
  Q 336.75 243.26 331.38 243.88
  Q 330.76 243.96 330.44 244.50
  L 327.94 248.72
  A 1.05 1.04 -52.9 0 1 326.32 248.95
  C 324.17 246.88 325.93 243.20 322.62 242.32
  Q 322.13 242.19 321.76 241.85
  Q 320.61 240.81 319.19 240.14
  A 0.69 0.49 -21.1 0 0 318.99 240.09
  L 312.31 239.84
  Q 311.79 239.82 311.42 240.17
  Q 309.32 242.18 306.79 241.43
  Q 304.84 240.84 305.91 239.10
  Q 306.19 238.66 306.71 238.73
  L 309.28 239.07
  A 0.91 0.91 0.0 0 0 310.11 237.60
  L 307.65 234.59
  A 0.90 0.90 0.0 0 1 307.46 233.91
  C 308.01 229.79 306.48 227.19 303.14 225.11
  Q 301.46 224.06 302.23 221.76
  Q 303.85 216.95 304.13 212.28
  Z"
/>
<path fill="#3f3f3b" d="
  M 205.24 224.67
  L 205.28 223.06
  A 0.23 0.23 0.0 0 1 205.73 222.98
  C 206.60 225.24 205.51 227.63 204.70 229.71
  A 0.44 0.44 0.0 0 1 203.86 229.59
  Q 203.62 227.27 204.99 225.41
  A 1.44 1.39 64.8 0 0 205.24 224.67
  Z"
/>
<path fill="#fcfcfc" d="
  M 290.57 513.00
  L 217.58 513.00
  Q 214.55 510.11 209.21 509.98
  A 2.04 2.04 0.0 0 1 207.22 507.92
  C 207.28 500.37 207.72 492.66 207.74 485.08
  C 207.79 471.32 208.87 455.83 209.14 443.93
  Q 209.88 411.77 210.36 379.56
  Q 210.37 379.03 210.86 378.82
  C 214.17 377.41 219.87 375.10 221.71 372.20
  C 225.09 366.87 225.88 360.66 227.97 354.23
  Q 228.73 351.89 226.25 349.25
  A 0.81 0.79 -57.1 0 1 226.08 348.41
  C 227.95 343.43 229.61 339.66 224.56 335.82
  Q 224.17 335.53 224.29 335.05
  C 225.40 330.72 227.16 328.60 223.13 325.02
  Q 222.76 324.70 222.84 324.21
  C 223.20 321.82 221.64 316.66 218.29 317.95
  Q 217.70 318.18 217.90 317.58
  C 218.89 314.71 212.45 314.23 210.56 314.42
  Q 210.00 314.48 209.86 315.03
  L 208.57 319.94
  Q 208.45 320.42 208.06 320.72
  L 206.64 321.83
  A 0.56 0.56 0.0 0 1 205.74 321.29
  L 207.02 314.34
  Q 209.60 314.45 210.17 311.75
  Q 212.32 301.68 217.65 293.45
  A 1.72 1.68 -34.1 0 0 217.90 292.22
  Q 217.67 291.06 216.75 290.99
  Q 216.19 290.95 216.25 291.51
  Q 216.35 292.34 215.48 292.84
  A 1.57 1.34 -72.0 0 1 214.36 290.14
  Q 215.00 289.72 215.40 289.22
  Q 215.77 288.74 215.43 288.24
  L 211.73 282.88
  A 0.54 0.53 -35.1 0 0 210.97 282.75
  Q 209.48 283.81 208.75 285.48
  A 1.29 1.22 88.4 0 1 208.23 286.06
  Q 206.18 287.21 205.66 289.60
  A 0.29 0.28 -43.7 0 1 205.10 289.59
  C 204.65 286.76 205.27 284.08 204.72 280.43
  Q 204.44 278.57 203.31 275.11
  Q 201.55 269.74 201.47 263.75
  Q 205.28 268.99 205.38 274.98
  Q 205.42 277.18 205.82 278.59
  A 1.26 1.25 -51.9 0 0 208.28 278.29
  Q 208.33 276.61 209.26 275.21
  Q 209.62 274.68 209.30 274.13
  L 201.93 261.11
  Q 201.71 260.71 201.35 260.99
  Q 200.96 261.30 200.69 261.31
  L 199.37 259.20
  A 1.02 0.99 27.6 0 1 199.23 258.77
  C 199.02 256.49 197.43 256.00 196.84 254.26
  C 196.14 252.20 194.26 247.29 195.23 244.71
  A 0.20 0.20 0.0 0 1 195.62 244.74
  Q 196.66 250.10 199.12 254.99
  Q 199.38 255.50 199.96 255.50
  L 201.17 255.50
  A 0.82 0.82 0.0 0 1 201.99 256.38
  L 201.77 259.47
  A 0.79 0.79 0.0 0 0 202.96 260.21
  L 204.13 259.54
  Q 204.70 259.21 204.40 258.62
  Q 202.46 254.68 208.22 252.68
  Q 206.02 255.94 206.57 258.93
  Q 206.68 259.55 207.27 259.32
  Q 210.91 257.87 214.53 259.71
  Q 214.98 259.94 214.97 260.44
  Q 214.95 261.33 214.15 261.58
  Q 213.64 261.74 213.72 262.27
  L 214.05 264.48
  Q 214.13 265.00 213.64 265.20
  Q 211.30 266.11 210.80 268.52
  Q 210.72 268.91 210.44 269.18
  L 209.93 269.69
  Q 209.45 270.18 210.04 270.53
  Q 210.88 271.04 211.89 270.78
  A 0.66 0.66 0.0 0 1 212.70 271.54
  Q 212.55 272.42 213.35 272.70
  A 0.58 0.58 0.0 0 1 213.03 273.81
  L 210.95 273.33
  A 0.23 0.23 0.0 0 0 210.74 273.73
  C 214.89 277.39 216.23 280.96 222.13 282.64
  Q 223.49 283.03 223.13 281.66
  C 221.54 275.68 221.85 269.27 220.58 263.72
  C 218.86 256.28 217.26 249.25 214.20 242.22
  A 0.36 0.36 0.0 0 1 214.76 241.81
  C 232.02 256.78 257.99 257.81 276.00 243.24
  A 0.24 0.24 0.0 0 1 276.39 243.48
  C 275.26 248.60 276.57 252.68 272.92 257.16
  C 266.26 265.33 263.73 269.81 271.55 279.06
  C 273.45 281.30 273.68 284.13 276.12 286.61
  Q 276.47 286.96 276.93 286.80
  Q 282.48 284.93 287.90 286.69
  Q 288.34 286.84 288.54 287.24
  Q 289.84 289.85 292.57 290.90
  Q 293.87 291.40 294.02 290.29
  A 0.63 0.62 -57.8 0 1 295.16 290.03
  L 299.71 296.96
  Q 300.02 297.43 300.05 297.99
  Q 300.19 301.16 301.19 304.14
  C 301.64 305.51 302.82 306.58 303.35 308.10
  Q 303.52 308.61 304.00 308.87
  L 304.60 309.19
  A 0.47 0.46 63.5 0 1 304.31 310.06
  Q 298.00 309.05 292.14 306.78
  Q 289.75 305.85 288.29 306.09
  C 284.04 306.78 282.65 312.92 286.33 315.32
  Q 288.49 316.72 285.95 317.17
  C 281.62 317.95 280.91 324.30 282.68 327.43
  A 1.10 1.08 85.6 0 0 283.22 327.90
  L 289.36 330.42
  A 0.31 0.31 0.0 0 1 289.28 331.02
  L 283.52 331.67
  A 0.71 0.68 21.1 0 0 283.12 331.84
  Q 279.10 335.36 281.38 340.27
  A 1.72 1.68 1.3 0 0 282.18 341.09
  L 286.19 343.09
  Q 286.59 343.29 286.29 343.62
  C 282.15 348.23 285.18 351.23 289.30 353.94
  Q 295.14 357.80 301.22 361.08
  A 1.57 1.56 -78.9 0 1 302.02 362.28
  C 303.14 372.11 303.11 382.39 304.15 391.61
  Q 304.89 398.21 305.62 404.82
  Q 306.55 413.24 302.26 419.75
  Q 301.91 420.28 302.33 420.77
  L 304.74 423.57
  Q 305.05 423.93 305.01 424.40
  C 304.36 433.23 305.44 441.19 306.59 449.91
  C 307.12 453.98 306.76 458.12 306.93 462.33
  C 307.08 465.96 304.92 470.06 304.37 473.82
  Q 304.23 474.85 304.96 474.12
  L 306.76 472.32
  A 0.83 0.83 0.0 0 1 308.16 472.71
  C 309.17 476.98 304.64 479.07 306.98 483.67
  Q 307.21 484.11 307.22 484.60
  Q 307.25 486.12 308.10 487.38
  Q 308.39 487.81 308.91 487.77
  L 310.50 487.65
  Q 311.11 487.60 311.24 488.19
  L 313.89 499.61
  Q 314.11 500.57 313.29 501.11
  Q 302.90 507.94 290.57 513.00
  Z
  M 217.73 283.66
  L 217.32 284.12
  A 0.17 0.17 0.0 0 0 217.33 284.36
  L 219.07 285.94
  A 3.81 0.41 42.3 0 0 222.17 288.21
  L 222.26 288.10
  A 3.81 0.41 42.3 0 0 219.72 285.23
  L 217.97 283.65
  A 0.17 0.17 0.0 0 0 217.73 283.66
  Z"
/>
<path fill="#3f3f3b" d="
  M 84.01 372.90
  Q 83.48 372.13 83.84 371.67
  Q 84.08 371.37 83.71 371.27
  C 79.39 370.11 75.58 371.34 71.46 369.50
  Q 71.07 369.33 71.47 369.16
  Q 75.01 367.69 76.66 368.44
  C 80.82 370.35 83.22 369.07 86.73 369.76
  Q 87.05 369.83 87.25 369.72
  A 0.24 0.24 0.0 0 0 87.14 369.27
  L 84.97 369.24
  Q 84.51 369.24 84.12 368.99
  L 82.99 368.30
  C 86.87 368.71 90.43 369.09 94.38 368.17
  C 96.66 367.64 100.00 367.93 101.47 365.67
  C 103.00 363.32 102.23 359.83 100.66 357.69
  Q 100.34 357.26 99.81 357.15
  Q 95.30 356.23 94.99 351.76
  A 0.72 0.71 -16.5 0 1 95.36 351.09
  L 106.93 344.58
  Q 107.66 344.17 106.88 343.84
  Q 106.03 343.48 105.03 344.04
  Q 101.76 345.86 98.58 347.92
  Q 98.13 348.21 97.64 348.01
  Q 96.47 347.56 95.32 348.00
  A 1.32 1.32 0.0 0 1 94.15 347.90
  Q 90.42 345.66 88.98 341.52
  A 0.90 0.90 0.0 0 1 90.30 340.45
  C 92.58 341.83 96.93 343.26 99.57 342.74
  Q 101.40 342.37 101.71 339.75
  Q 102.28 334.90 101.96 332.48
  Q 101.08 325.98 101.00 319.19
  A 1.29 1.29 0.0 0 1 103.28 318.35
  L 104.65 319.99
  Q 104.89 320.28 105.24 320.15
  Q 109.42 318.52 107.47 314.32
  Q 107.21 313.78 107.64 313.37
  Q 108.41 312.62 107.76 311.55
  A 0.88 0.87 -40.3 0 1 107.85 310.51
  Q 111.56 306.30 110.40 300.63
  Q 110.29 300.09 109.86 299.75
  Q 108.00 298.25 107.23 296.03
  C 106.29 293.31 109.37 290.42 111.72 292.35
  C 112.61 293.08 113.07 294.69 113.58 295.77
  A 0.44 0.44 0.0 0 0 114.41 295.57
  L 114.27 284.17
  Q 114.26 283.70 114.67 283.47
  Q 117.02 282.08 118.43 279.60
  Q 118.68 279.15 118.30 278.81
  Q 115.93 276.68 117.45 274.31
  Q 117.72 273.89 117.82 273.40
  C 118.36 270.81 118.95 268.65 119.06 266.01
  Q 119.11 264.84 120.29 264.53
  Q 120.87 264.38 121.20 264.88
  L 123.15 267.84
  A 2.01 2.01 0.0 0 0 126.77 267.25
  Q 126.98 266.48 127.57 265.92
  Q 127.88 265.63 127.93 265.21
  L 128.09 264.05
  A 0.39 0.39 0.0 0 1 128.85 263.97
  C 131.44 271.21 134.15 276.71 132.04 285.25
  Q 130.59 291.10 131.65 296.62
  A 0.91 0.91 0.0 0 0 133.39 296.80
  C 134.61 293.87 134.34 291.69 136.01 288.83
  A 0.82 0.79 56.7 0 0 136.11 288.31
  Q 135.47 284.19 136.51 280.19
  A 1.17 1.16 -57.3 0 0 136.29 279.18
  Q 135.63 278.34 136.26 277.60
  Q 136.63 277.17 136.67 276.60
  L 137.65 261.44
  A 2.07 2.07 0.0 0 1 141.71 261.01
  L 146.75 278.88
  Q 146.87 279.32 147.32 279.42
  Q 148.75 279.74 149.43 278.74
  C 150.28 277.50 149.43 275.58 148.96 274.22
  Q 148.80 273.75 148.99 273.29
  Q 149.68 271.60 152.07 272.87
  Q 152.39 273.05 152.48 273.40
  Q 152.52 273.54 152.59 273.67
  Q 152.89 274.25 153.46 273.93
  C 155.94 272.55 154.95 270.93 155.08 268.96
  C 155.33 265.41 155.92 262.21 154.70 258.67
  Q 153.58 255.44 154.09 252.08
  A 0.50 0.49 -52.0 0 1 155.04 251.96
  C 159.07 261.86 161.70 271.84 165.04 282.11
  Q 167.75 290.41 168.24 295.75
  Q 168.92 303.11 171.22 307.54
  Q 173.01 310.99 172.43 314.17
  A 0.73 0.73 0.0 0 1 171.75 314.76
  L 168.01 314.98
  A 1.59 1.59 0.0 0 0 166.98 315.43
  Q 163.78 318.59 162.20 322.78
  A 1.06 1.05 -6.8 0 0 163.78 324.02
  Q 166.97 321.86 169.30 318.85
  A 1.37 1.36 -26.8 0 1 171.75 319.65
  Q 171.83 322.89 170.52 326.56
  C 169.28 330.06 173.41 332.97 169.27 337.17
  A 1.33 1.32 -20.7 0 0 168.90 337.98
  Q 168.56 341.99 164.97 343.76
  Q 164.37 344.05 164.44 344.71
  L 164.77 347.94
  Q 164.81 348.35 164.50 348.62
  C 161.84 350.93 160.03 352.98 156.55 354.35
  C 153.50 355.56 151.32 357.35 148.08 358.51
  Q 141.50 360.87 139.88 368.04
  A 1.74 1.64 74.0 0 1 139.46 368.85
  C 134.46 374.32 129.93 369.77 123.72 372.16
  Q 123.21 372.36 122.88 372.81
  L 120.12 376.58
  A 0.63 0.63 0.0 0 1 119.40 376.80
  C 113.63 374.83 111.27 374.41 105.27 376.04
  Q 104.79 376.18 104.45 376.54
  C 101.48 379.71 98.79 382.29 94.54 381.47
  Q 93.92 381.35 94.37 380.90
  L 94.93 380.34
  Q 95.34 379.92 95.87 379.65
  L 99.95 377.55
  Q 100.30 377.37 100.70 377.38
  Q 102.41 377.44 103.26 375.78
  A 0.33 0.33 0.0 0 0 102.88 375.31
  Q 99.42 376.17 96.18 377.44
  C 93.72 378.40 91.53 380.79 87.97 380.68
  A 0.33 0.33 0.0 0 1 87.89 380.03
  L 92.59 378.75
  Q 92.95 378.65 93.00 378.28
  Q 93.06 377.82 92.77 377.85
  C 79.30 379.31 63.87 391.80 58.66 404.22
  Q 58.49 404.62 58.30 404.23
  L 56.91 401.35
  Q 56.66 400.84 56.84 400.31
  Q 57.55 398.11 57.38 395.78
  A 0.58 0.58 0.0 0 1 57.87 395.16
  Q 59.60 394.88 59.52 393.17
  Q 59.50 392.65 59.77 392.20
  L 62.13 388.21
  Q 62.35 387.84 62.74 387.67
  Q 63.87 387.19 64.72 386.27
  Q 65.03 385.94 65.45 385.75
  Q 68.65 384.30 70.04 381.03
  A 0.42 0.42 0.0 0 0 69.50 380.48
  C 65.76 381.98 56.18 381.69 58.51 374.94
  Q 58.67 374.46 59.10 374.19
  Q 60.70 373.17 62.24 374.26
  A 1.35 1.32 -27.2 0 0 63.05 374.51
  C 66.14 374.47 69.68 375.46 71.75 372.63
  Q 71.94 372.37 72.26 372.42
  L 84.66 374.39
  A 0.60 0.60 0.0 0 0 85.19 373.38
  Q 84.84 373.02 84.01 372.90
  Z"
/>
<path fill="#3f3f3b" d="
  M 201.47 263.75
  L 200.69 261.31
  Q 200.96 261.30 201.35 260.99
  Q 201.71 260.71 201.93 261.11
  L 209.30 274.13
  Q 209.62 274.68 209.26 275.21
  Q 208.33 276.61 208.28 278.29
  A 1.26 1.25 -51.9 0 1 205.82 278.59
  Q 205.42 277.18 205.38 274.98
  Q 205.28 268.99 201.47 263.75
  Z"
/>
<ellipse fill="#fcfcfc" cx="0.00" cy="0.00" transform="translate(274.99,265.36) rotate(-37.2)" rx="2.53" ry="0.64"/>
<path fill="#fcfcfc" d="
  M 332.67 265.87
  C 336.75 269.37 342.12 274.95 345.00 279.94
  A 0.56 0.56 0.0 0 1 344.16 280.65
  Q 341.70 278.66 338.80 277.19
  C 334.28 274.91 333.48 270.58 331.57 266.72
  A 0.71 0.71 0.0 0 1 332.67 265.87
  Z"
/>
<path fill="#3f3f3b" d="
  M 82.99 368.30
  L 84.12 368.99
  Q 84.51 369.24 84.97 369.24
  L 87.14 369.27
  A 0.24 0.24 0.0 0 1 87.25 369.72
  Q 87.05 369.83 86.73 369.76
  C 83.22 369.07 80.82 370.35 76.66 368.44
  Q 75.01 367.69 71.47 369.16
  Q 71.07 369.33 71.46 369.50
  C 75.58 371.34 79.39 370.11 83.71 371.27
  Q 84.08 371.37 83.84 371.67
  Q 83.48 372.13 84.01 372.90
  C 77.51 372.40 71.56 370.68 65.03 369.92
  C 59.91 369.32 54.47 368.40 51.04 364.19
  A 0.95 0.94 42.7 0 1 50.99 363.06
  L 52.29 361.20
  A 0.59 0.58 -63.7 0 1 52.96 360.97
  Q 54.05 361.31 54.51 360.39
  Q 54.74 359.95 55.17 359.71
  Q 57.17 358.59 59.01 357.31
  C 60.50 356.27 62.60 355.71 63.94 353.90
  Q 64.24 353.49 64.76 353.47
  C 68.45 353.35 70.61 348.72 71.51 345.61
  Q 71.65 345.13 71.98 344.76
  Q 73.46 343.15 74.56 341.26
  C 75.55 339.57 75.33 337.72 75.98 335.77
  Q 79.02 326.67 80.79 317.20
  C 81.19 315.02 82.71 312.84 82.88 310.81
  Q 83.13 307.65 84.77 304.88
  A 0.63 0.63 0.0 0 0 83.72 304.19
  L 82.26 306.25
  A 0.79 0.79 0.0 0 1 80.95 306.20
  Q 80.77 305.92 80.71 305.36
  Q 80.66 304.98 80.84 304.61
  Q 82.62 301.02 84.77 297.65
  Q 85.04 297.22 85.55 297.20
  Q 86.88 297.15 87.46 296.44
  Q 96.73 285.15 103.00 271.91
  A 0.37 0.37 0.0 0 1 103.68 271.92
  Q 103.98 272.59 103.51 273.82
  Q 101.67 278.65 99.30 283.31
  Q 99.07 283.74 98.66 284.01
  C 96.42 285.41 95.81 290.74 94.87 293.03
  C 93.88 295.43 93.53 297.54 92.69 299.85
  A 2.01 1.97 -39.6 0 0 92.59 300.81
  C 93.11 304.21 91.32 306.24 90.37 308.61
  C 89.36 311.10 87.79 312.84 87.10 315.48
  C 86.63 317.30 85.90 318.75 85.73 320.65
  Q 85.44 323.76 84.36 326.68
  C 83.09 330.07 83.48 332.40 83.91 335.72
  A 1.38 1.36 58.5 0 1 83.69 336.67
  Q 82.70 338.13 83.03 339.93
  Q 83.11 340.35 82.82 340.66
  C 80.92 342.71 81.82 344.79 80.65 346.92
  C 79.28 349.43 78.70 350.49 79.27 353.28
  Q 79.36 353.73 79.03 354.05
  Q 78.27 354.78 78.59 356.20
  C 80.69 365.62 72.06 364.11 66.55 365.80
  A 0.77 0.77 0.0 0 0 66.19 367.03
  Q 67.51 368.59 69.36 367.56
  Q 69.82 367.30 70.35 367.34
  L 82.99 368.30
  Z"
/>
<path fill="#3f3f3b" d="
  M 381.27 272.01
  Q 392.15 294.27 401.45 316.89
  Q 400.08 317.52 401.10 320.66
  A 0.93 0.93 0.0 0 1 399.42 321.44
  C 397.38 318.14 395.81 314.77 394.44 310.80
  C 389.88 297.59 384.16 285.77 379.65 273.10
  Q 379.49 272.65 379.96 272.56
  Q 380.69 272.41 381.27 272.01
  Z"
/>
<path fill="#fcfcfc" d="
  M 221.4239 280.7181
  A 4.54 2.37 50.4 0 1 216.7039 278.7307
  A 4.54 2.37 50.4 0 1 215.6361 273.7219
  A 4.54 2.37 50.4 0 1 220.3561 275.7093
  A 4.54 2.37 50.4 0 1 221.4239 280.7181
  Z
  M 219.2938 279.1035
  A 2.14 0.75 65.9 0 0 219.1046 276.8438
  A 2.14 0.75 65.9 0 0 217.5462 275.1965
  A 2.14 0.75 65.9 0 0 217.7354 277.4562
  A 2.14 0.75 65.9 0 0 219.2938 279.1035
  Z"
/>
<ellipse fill="#3f3f3b" cx="0.00" cy="0.00" transform="translate(218.42,277.15) rotate(65.9)" rx="2.14" ry="0.75"/>
<path fill="#3f3f3b" d="
  M 217.73 283.66
  A 0.17 0.17 0.0 0 1 217.97 283.65
  L 219.72 285.23
  A 3.81 0.41 42.3 0 1 222.26 288.10
  L 222.17 288.21
  A 3.81 0.41 42.3 0 1 219.07 285.94
  L 217.33 284.36
  A 0.17 0.17 0.0 0 1 217.32 284.12
  L 217.73 283.66
  Z"
/>
<path fill="#3f3f3b" d="
  M 207.02 314.34
  L 205.74 321.29
  A 0.56 0.56 0.0 0 0 206.64 321.83
  L 208.06 320.72
  Q 208.45 320.42 208.57 319.94
  L 209.86 315.03
  Q 210.00 314.48 210.56 314.42
  C 212.45 314.23 218.89 314.71 217.90 317.58
  Q 217.70 318.18 218.29 317.95
  C 221.64 316.66 223.20 321.82 222.84 324.21
  Q 222.76 324.70 223.13 325.02
  C 227.16 328.60 225.40 330.72 224.29 335.05
  Q 224.17 335.53 224.56 335.82
  C 229.61 339.66 227.95 343.43 226.08 348.41
  A 0.81 0.79 -57.1 0 0 226.25 349.25
  Q 228.73 351.89 227.97 354.23
  C 225.88 360.66 225.09 366.87 221.71 372.20
  C 219.87 375.10 214.17 377.41 210.86 378.82
  Q 210.37 379.03 210.36 379.56
  Q 209.88 411.77 209.14 443.93
  C 208.87 455.83 207.79 471.32 207.74 485.08
  C 207.72 492.66 207.28 500.37 207.22 507.92
  A 2.04 2.04 0.0 0 0 209.21 509.98
  Q 214.55 510.11 217.58 513.00
  L 132.38 513.00
  C 132.29 508.46 131.64 504.04 133.28 499.74
  Q 135.34 494.32 138.34 489.51
  A 0.46 0.46 0.0 0 0 137.82 488.83
  L 132.81 490.28
  Q 132.40 490.40 132.10 490.71
  L 130.87 491.98
  A 0.66 0.66 0.0 0 1 129.87 491.93
  Q 127.84 489.35 127.58 486.02
  A 0.68 0.67 60.9 0 0 126.36 485.67
  Q 125.73 486.54 125.77 488.01
  Q 126.11 500.52 125.85 513.00
  L 122.56 513.00
  Q 122.54 499.24 122.05 485.49
  C 121.98 483.48 122.01 480.45 123.14 478.76
  C 124.94 476.07 125.92 473.34 125.75 469.90
  Q 124.99 454.85 124.86 440.28
  A 1.44 1.44 0.0 0 0 123.10 438.89
  C 107.24 442.41 84.07 444.08 69.88 434.89
  Q 70.33 434.78 70.60 434.54
  A 0.43 0.43 0.0 0 0 70.49 433.83
  Q 66.82 432.13 67.46 428.21
  Q 67.55 427.67 67.33 427.17
  Q 66.77 425.86 67.00 425.24
  Q 67.82 423.01 69.55 416.52
  Q 71.50 409.17 76.96 396.97
  Q 77.15 396.53 77.64 396.54
  Q 80.26 396.57 81.08 394.03
  Q 81.26 393.45 81.76 393.81
  Q 83.98 395.40 86.87 394.66
  Q 87.47 394.50 87.41 395.12
  Q 86.84 401.27 88.23 407.14
  C 88.70 409.14 88.83 412.46 89.97 414.92
  Q 90.19 415.39 90.67 415.54
  Q 96.08 417.32 101.63 416.65
  C 104.86 416.26 108.08 416.32 111.19 415.69
  C 113.23 415.27 116.85 415.29 119.40 413.66
  A 0.32 0.32 0.0 0 0 119.27 413.08
  L 117.25 412.82
  Q 116.53 412.73 116.51 412.00
  C 116.43 408.41 118.60 406.85 119.11 403.95
  C 120.10 398.26 117.53 394.21 122.87 389.72
  Q 123.26 389.39 123.19 388.88
  L 122.57 384.69
  A 0.64 0.64 0.0 0 1 123.77 384.30
  C 125.05 386.73 125.92 389.45 127.35 391.77
  Q 131.05 397.76 134.38 403.96
  C 135.52 406.09 136.15 408.72 137.30 411.14
  C 138.82 414.34 139.46 417.77 139.47 421.30
  Q 139.47 423.35 141.11 423.98
  Q 141.63 424.18 141.77 423.64
  C 142.98 419.09 139.93 413.38 138.78 409.83
  Q 138.60 409.28 139.17 409.18
  Q 141.64 408.75 143.17 407.92
  Q 143.80 407.58 143.41 406.91
  A 0.69 0.69 0.0 0 0 142.44 406.69
  Q 140.82 407.79 138.89 407.16
  Q 138.41 407.00 138.15 406.57
  Q 137.40 405.30 136.59 404.09
  C 135.86 402.99 134.40 402.64 134.41 400.75
  Q 134.41 400.23 133.95 399.99
  C 133.04 399.49 132.46 398.17 133.46 397.46
  Q 133.81 397.20 134.32 397.24
  Q 134.83 397.27 135.20 396.90
  Q 137.49 394.58 138.11 391.39
  Q 138.24 390.77 138.85 390.59
  Q 144.96 388.79 150.74 391.40
  Q 151.25 391.63 151.80 391.51
  L 155.54 390.70
  A 1.89 1.89 0.0 0 0 156.85 388.04
  L 153.42 380.84
  A 0.94 0.94 0.0 0 1 153.83 379.61
  Q 158.56 377.15 163.94 378.53
  A 1.47 1.43 82.1 0 1 164.87 379.25
  Q 165.74 380.82 167.79 380.17
  A 0.64 0.64 0.0 0 0 168.19 379.30
  C 165.03 372.19 160.03 357.27 164.80 350.32
  Q 165.09 349.90 165.54 350.01
  Q 165.93 350.11 166.13 349.76
  C 170.44 342.19 174.94 332.56 180.82 328.97
  Q 189.69 323.56 194.55 315.79
  Q 196.92 312.00 198.38 310.80
  A 0.75 0.75 0.0 0 0 198.64 310.39
  Q 199.14 308.25 201.09 307.80
  Q 201.70 307.66 202.06 307.16
  L 204.54 303.71
  Q 204.86 303.27 204.52 302.84
  Q 204.20 302.44 204.23 302.00
  Q 204.29 301.29 204.75 301.84
  C 207.86 305.57 207.49 309.17 207.02 314.34
  Z
  M 207.5747 404.2446
  A 4.41 3.83 -2.8 0 0 202.9829 400.6346
  A 4.41 3.83 -2.8 0 0 198.7653 404.6754
  A 4.41 3.83 -2.8 0 0 203.3571 408.2854
  A 4.41 3.83 -2.8 0 0 207.5747 404.2446
  Z
  M 205.9315 464.9536
  A 4.46 3.42 -32.5 0 0 200.3324 464.4656
  A 4.46 3.42 -32.5 0 0 198.4085 469.7464
  A 4.46 3.42 -32.5 0 0 204.0076 470.2344
  A 4.46 3.42 -32.5 0 0 205.9315 464.9536
  Z"
/>
<path fill="#fcfcfc" d="
  M 359.55 341.37
  L 357.43 341.54
  Q 356.99 341.57 356.83 341.16
  L 355.52 337.82
  A 0.71 0.70 37.0 0 0 354.16 338.01
  C 353.46 345.53 350.95 350.25 347.92 357.32
  C 344.26 365.85 337.26 373.86 329.94 378.92
  Q 325.81 381.77 320.59 379.94
  Q 320.25 379.82 320.25 379.46
  L 320.25 379.02
  A 0.47 0.47 0.0 0 1 320.85 378.57
  C 324.55 379.68 327.42 379.72 330.62 377.16
  C 337.59 371.59 342.93 365.48 346.84 357.15
  C 349.86 350.72 352.95 344.20 352.79 337.05
  Q 352.78 336.58 353.25 336.51
  L 353.68 336.45
  Q 353.86 336.43 353.84 336.25
  L 353.43 331.79
  A 0.58 0.58 0.0 0 1 354.27 331.21
  C 360.60 334.31 364.89 339.25 369.33 343.14
  Q 369.68 343.45 369.78 343.90
  C 370.52 347.36 374.95 350.77 376.99 353.99
  C 379.62 358.15 388.59 361.26 393.16 362.78
  Q 393.60 362.93 393.51 363.39
  L 393.40 363.95
  A 0.50 0.49 22.5 0 1 392.63 364.26
  Q 390.49 362.80 388.09 363.62
  Q 387.60 363.79 387.20 363.44
  Q 385.38 361.85 383.08 361.18
  A 1.69 1.65 -10.5 0 1 382.23 360.61
  C 380.45 358.34 378.14 358.05 376.20 355.72
  Q 375.80 355.24 375.24 355.51
  L 372.43 356.88
  Q 371.94 357.12 371.77 356.59
  L 371.49 355.69
  Q 371.34 355.20 371.68 354.81
  C 374.29 351.80 373.01 349.61 370.16 347.73
  Q 369.73 347.45 369.60 346.94
  Q 368.54 342.48 364.22 340.62
  Q 363.68 340.38 363.35 340.88
  Q 362.80 341.72 361.72 341.77
  Q 361.04 341.80 360.94 342.47
  L 360.65 344.39
  A 0.13 0.12 2.4 0 1 360.52 344.50
  Q 360.38 344.50 360.25 344.50
  Q 360.00 344.50 360.00 344.25
  L 360.00 341.78
  Q 360.00 341.33 359.55 341.37
  Z"
/>
<path fill="#3f3f3b" d="
  M 118.32 377.41
  Q 118.88 377.47 118.73 378.10
  Q 118.63 378.51 118.22 378.58
  Q 113.22 379.49 109.09 382.49
  A 0.69 0.68 76.3 0 1 108.01 381.83
  L 108.36 379.52
  Q 108.43 379.07 108.85 378.89
  Q 113.40 376.88 118.32 377.41
  Z"
/>
<path fill="#3f3f3b" d="
  M 72.69 393.13
  Q 74.72 389.37 78.22 386.59
  A 0.77 0.76 -47.1 0 1 79.12 386.55
  C 80.54 387.50 80.38 389.10 79.40 390.41
  Q 76.37 394.45 74.45 399.20
  Q 69.32 411.88 65.43 424.06
  A 1.70 1.70 0.0 0 1 62.68 424.81
  Q 60.62 422.97 61.17 420.53
  Q 61.27 420.08 61.07 419.66
  Q 59.67 416.60 60.79 413.42
  Q 60.97 412.93 60.97 412.40
  L 61.04 407.98
  Q 61.05 407.22 61.77 406.96
  Q 67.21 405.06 68.98 398.99
  C 69.55 397.03 71.72 394.94 72.69 393.13
  Z"
/>
<path fill="#3f3f3b" d="
  M 71.07 390.13
  Q 71.58 389.11 72.41 389.38
  A 0.64 0.64 0.0 0 1 72.72 390.37
  Q 68.84 395.54 66.49 401.68
  Q 65.85 403.36 63.51 403.70
  Q 62.99 403.78 63.18 403.29
  C 64.36 400.29 66.76 398.16 68.07 395.78
  Q 69.62 392.97 71.07 390.13
  Z"
/>
<path fill="#3f3f3b" d="
  M 57.83 421.87
  C 49.51 416.51 54.15 407.65 52.25 399.24
  L 52.99 398.97
  Q 53.43 398.81 53.65 399.22
  L 57.94 407.12
  A 1.21 1.18 -52.2 0 1 58.04 408.01
  Q 56.17 414.73 57.83 421.87
  Z"
/>
<path fill="#fcfcfc" d="
  M 207.5747 404.2446
  A 4.41 3.83 -2.8 0 1 203.3571 408.2854
  A 4.41 3.83 -2.8 0 1 198.7653 404.6754
  A 4.41 3.83 -2.8 0 1 202.9829 400.6346
  A 4.41 3.83 -2.8 0 1 207.5747 404.2446
  Z
  M 205.6613 404.0925
  A 2.48 1.95 -4.8 0 0 203.0268 402.3568
  A 2.48 1.95 -4.8 0 0 200.7187 404.5075
  A 2.48 1.95 -4.8 0 0 203.3532 406.2432
  A 2.48 1.95 -4.8 0 0 205.6613 404.0925
  Z"
/>
<ellipse fill="#3f3f3b" cx="0.00" cy="0.00" transform="translate(203.19,404.30) rotate(-4.8)" rx="2.48" ry="1.95"/>
<path fill="#fcfcfc" d="
  M 205.9315 464.9536
  A 4.46 3.42 -32.5 0 1 204.0076 470.2344
  A 4.46 3.42 -32.5 0 1 198.4085 469.7464
  A 4.46 3.42 -32.5 0 1 200.3324 464.4656
  A 4.46 3.42 -32.5 0 1 205.9315 464.9536
  Z
  M 204.0359 466.0868
  A 2.33 1.53 -29.1 0 0 201.2559 465.8831
  A 2.33 1.53 -29.1 0 0 199.9641 468.3532
  A 2.33 1.53 -29.1 0 0 202.7441 468.5569
  A 2.33 1.53 -29.1 0 0 204.0359 466.0868
  Z"
/>
<ellipse fill="#3f3f3b" cx="0.00" cy="0.00" transform="translate(202.00,467.22) rotate(-29.1)" rx="2.33" ry="1.53"/>
<path fill="#fcfcfc" d="
  M 132.38 513.00
  L 125.85 513.00
  Q 126.11 500.52 125.77 488.01
  Q 125.73 486.54 126.36 485.67
  A 0.68 0.67 60.9 0 1 127.58 486.02
  Q 127.84 489.35 129.87 491.93
  A 0.66 0.66 0.0 0 0 130.87 491.98
  L 132.10 490.71
  Q 132.40 490.40 132.81 490.28
  L 137.82 488.83
  A 0.46 0.46 0.0 0 1 138.34 489.51
  Q 135.34 494.32 133.28 499.74
  C 131.64 504.04 132.29 508.46 132.38 513.00
  Z"
/>
<path fill="#fcfcfc" d="
  M 317.73 513.00
  L 295.65 513.00
  Q 297.01 511.85 299.00 511.76
  Q 299.44 511.74 299.75 511.44
  Q 301.42 509.82 303.77 509.52
  Q 304.30 509.45 304.72 509.12
  C 306.86 507.45 308.94 506.38 311.38 504.53
  Q 312.53 503.66 314.00 503.30
  Q 314.53 503.17 314.70 503.69
  L 317.73 513.00
  Z"
/>
</svg>
